<?xml version="1.0" encoding="UTF-8" standalone="no"?>
<!-- Created with Inkscape (http://www.inkscape.org/) -->

<svg
   xmlns:svg="http://www.w3.org/2000/svg"
   xmlns="http://www.w3.org/2000/svg"
   version="1.2"
   width="128"
   height="128"
   id="svg3001">
  <defs
     id="defs3003">
    <linearGradient
       id="linearGradient3744-0-2-1-5-5-2-3">
      <stop
         id="stop3746-5-0-8-5-8-1-6"
         style="stop-color:#6f6d5c;stop-opacity:1"
         offset="0" />
      <stop
         id="stop3748-7-8-9-7-8-8-2"
         style="stop-color:#e5e2cc;stop-opacity:0"
         offset="1" />
    </linearGradient>
  </defs>
  <g
     transform="matrix(0.22015517,0,0,0.22015517,-13.28879,-52.967803)"
     id="layer1">
    <g
       transform="matrix(15.818736,0,0,14.223255,9985.4332,-9390.9196)"
       id="flowRoot3714-6-5-9-0-8-45-8"
       style="font-size:40px;font-style:normal;font-weight:normal;fill:#afab4c;fill-opacity:1;stroke:none;font-family:Bitstream Vera Sans">
      <path
         d="m -606.05859,689.40512 c -0.84637,2e-5 -1.26955,0.94403 -1.26953,2.83203 l 0,13.39844 c 1.23696,0 2.47394,-0.67708 3.71093,-2.03125 1.10675,-1.21093 1.66014,-3.26822 1.66016,-6.17187 -2e-5,-2.70832 -0.55992,-4.79165 -1.67969,-6.25 -0.91147,-1.18488 -1.71877,-1.77733 -2.42187,-1.77735 m 0,-3.0664 c 1.82289,2e-5 3.56117,0.85939 5.21484,2.57812 1.78383,1.83596 2.67576,4.6745 2.67578,8.51563 -2e-5,3.52865 -0.89195,6.34115 -2.67578,8.4375 -1.67971,1.97916 -3.84116,2.96875 -6.48437,2.96875 l 0,7.85156 -3.57422,0 0,-7.83203 c -2.59116,0 -4.75912,-0.9961 -6.50391,-2.98828 -1.77084,-2.03125 -2.65625,-4.83724 -2.65625,-8.41797 0,-3.72395 0.88541,-6.53644 2.65625,-8.4375 1.32812,-1.41925 3.07291,-2.31118 5.23438,-2.67578 l 0,3.18359 c -0.85939,0.2995 -1.66668,0.95705 -2.42188,1.97266 -1.1198,1.49741 -1.67969,3.48308 -1.67969,5.95703 0,2.63021 0.55989,4.69401 1.67969,6.1914 1.0026,1.34115 2.23306,2.01173 3.69141,2.01172 l 0,-13.41797 c -2e-5,-3.93227 1.61457,-5.89841 4.84375,-5.89843"
         id="path3414"
         style="fill:#afab4c" />
    </g>
    <path
       d="m 303.04577,729.11334 a 343.45187,343.45187 0 1 1 -686.90375,0 343.45187,343.45187 0 1 1 686.90375,0 z"
       transform="matrix(0.72871442,0,0,0.72871442,379.44451,1.04678)"
       id="path4228-9-9-7-8-3-9-36"
       style="fill:none;stroke:#afab4c;stroke-width:69.12093353;stroke-miterlimit:4;stroke-opacity:1;stroke-dasharray:none" />
  </g>
</svg>
