<?xml version="1.0" encoding="UTF-8" standalone="no"?>
<!-- Created with Inkscape (http://www.inkscape.org/) -->

<svg
   xmlns:dc="http://purl.org/dc/elements/1.1/"
   xmlns:cc="http://creativecommons.org/ns#"
   xmlns:rdf="http://www.w3.org/1999/02/22-rdf-syntax-ns#"
   xmlns:svg="http://www.w3.org/2000/svg"
   xmlns="http://www.w3.org/2000/svg"
   xmlns:xlink="http://www.w3.org/1999/xlink"
   xmlns:sodipodi="http://sodipodi.sourceforge.net/DTD/sodipodi-0.dtd"
   xmlns:inkscape="http://www.inkscape.org/namespaces/inkscape"
   width="454"
   height="90"
   id="svg2"
   version="1.1"
   inkscape:version="0.47 r22583"
   sodipodi:docname="logo.svg">
  <defs
     id="defs4">
    <inkscape:perspective
       sodipodi:type="inkscape:persp3d"
       inkscape:vp_x="0 : 526.18109 : 1"
       inkscape:vp_y="0 : 1000 : 0"
       inkscape:vp_z="744.09448 : 526.18109 : 1"
       inkscape:persp3d-origin="372.04724 : 350.78739 : 1"
       id="perspective10" />
    <inkscape:perspective
       id="perspective2824"
       inkscape:persp3d-origin="0.5 : 0.33333333 : 1"
       inkscape:vp_z="1 : 0.5 : 1"
       inkscape:vp_y="0 : 1000 : 0"
       inkscape:vp_x="0 : 0.5 : 1"
       sodipodi:type="inkscape:persp3d" />
    <inkscape:perspective
       id="perspective9257"
       inkscape:persp3d-origin="0.5 : 0.33333333 : 1"
       inkscape:vp_z="1 : 0.5 : 1"
       inkscape:vp_y="0 : 1000 : 0"
       inkscape:vp_x="0 : 0.5 : 1"
       sodipodi:type="inkscape:persp3d" />
    <inkscape:perspective
       id="perspective9289"
       inkscape:persp3d-origin="0.5 : 0.33333333 : 1"
       inkscape:vp_z="1 : 0.5 : 1"
       inkscape:vp_y="0 : 1000 : 0"
       inkscape:vp_x="0 : 0.5 : 1"
       sodipodi:type="inkscape:persp3d" />
    <linearGradient
       x1="52.92857"
       y1="60"
       x2="52.92857"
       y2="19.986593"
       id="linearGradient3381"
       xlink:href="#linearGradient3767"
       gradientUnits="userSpaceOnUse"
       gradientTransform="translate(0,2.5000001e-6)" />
    <linearGradient
       id="linearGradient3767">
      <stop
         id="stop3769"
         style="stop-color:#4d4d4d;stop-opacity:0.70731705"
         offset="0" />
      <stop
         id="stop3771"
         style="stop-color:#4d4d4d;stop-opacity:0.25203252"
         offset="1" />
    </linearGradient>
    <clipPath
       id="clipPath3403">
      <path
         d="m -72.6875,6.90625 0,67.5 82.34375,0 0,-67.5 -82.34375,0 z M -32,20 c 13.248,0 24,8.96 24,20 0,11.040001 -10.752,20.000001 -24,20 -13.248,0 -24,-8.959998 -24,-20 0,-11.040001 10.752,-20 24,-20 z m 5.71875,2.25 -2.84375,8.90625 c 1.884334,0.423339 3.565705,1.226629 4.90625,2.34375 L -16.375,27 c -2.867015,-2.389179 -5.989834,-3.875501 -9.90625,-4.75 z M -32,32.5 c -4.967999,0 -8.999999,3.360001 -9,7.5 0,4.139999 4.032001,7.500001 9,7.5 4.967999,0 8.999999,-3.36 9,-7.5 0,-4.139999 -4.032,-7.500001 -9,-7.5 z m 0,2.5 c 3.311999,0 6,2.240001 6,5 -1e-6,2.759999 -2.688,5.000001 -6,5 -3.312,-10e-7 -6,-2.239999 -6,-5 0,-2.76 2.688,-5.000001 6,-5 z m 0,1.65625 c -2.208,0 -3.999999,1.503751 -4,3.34375 0,1.84 1.792,3.343748 4,3.34375 2.208,0 4,-1.50375 4,-3.34375 0,-1.84 -1.792,-3.343751 -4,-3.34375 z M -39.78125,46.5 -47.5625,53 c 2.867015,2.389177 5.989835,3.8755 9.90625,4.75 l 2.84375,-8.90625 C -36.712573,48.426166 -38.398383,47.621706 -39.75,46.5 l -0.03125,0 z"
         inkscape:connector-curvature="0"
         id="path3405"
         style="fill:#ffffff;fill-opacity:1;fill-rule:nonzero;stroke:none" />
    </clipPath>
    <filter
       x="-0.1104"
       y="-0.13142857"
       width="1.2208"
       height="1.2628571"
       color-interpolation-filters="sRGB"
       id="filter3407">
      <feGaussianBlur
         id="feGaussianBlur3409"
         stdDeviation="2.3" />
    </filter>
    <inkscape:perspective
       id="perspective9374"
       inkscape:persp3d-origin="0.5 : 0.33333333 : 1"
       inkscape:vp_z="1 : 0.5 : 1"
       inkscape:vp_y="0 : 1000 : 0"
       inkscape:vp_x="0 : 0.5 : 1"
       sodipodi:type="inkscape:persp3d" />
    <linearGradient
       x1="32.251034"
       y1="6.1317081"
       x2="32.251034"
       y2="90.238609"
       id="linearGradient2918"
       xlink:href="#ButtonShadow-0"
       gradientUnits="userSpaceOnUse"
       gradientTransform="matrix(1.0238095,0,0,1.0119048,-1.1428571,-98.071429)" />
    <linearGradient
       x1="45.447727"
       y1="92.539597"
       x2="45.447727"
       y2="7.0165396"
       id="ButtonShadow-0"
       gradientUnits="userSpaceOnUse"
       gradientTransform="matrix(1.0058652,0,0,0.994169,100,0)">
      <stop
         id="stop3750-8"
         style="stop-color:#000000;stop-opacity:1"
         offset="0" />
      <stop
         id="stop3752-5"
         style="stop-color:#000000;stop-opacity:0.58823532"
         offset="1" />
    </linearGradient>
    <linearGradient
       x1="32.251034"
       y1="6.1317081"
       x2="32.251034"
       y2="90.238609"
       id="linearGradient3780"
       xlink:href="#ButtonShadow-0"
       gradientUnits="userSpaceOnUse"
       gradientTransform="matrix(1.0238095,0,0,1.0119048,-1.1428571,-98.071429)" />
    <linearGradient
       x1="45.447727"
       y1="92.539597"
       x2="45.447727"
       y2="7.0165396"
       id="linearGradient9383"
       gradientUnits="userSpaceOnUse"
       gradientTransform="matrix(1.0058652,0,0,0.994169,100,0)">
      <stop
         id="stop9385"
         style="stop-color:#000000;stop-opacity:1"
         offset="0" />
      <stop
         id="stop9387"
         style="stop-color:#000000;stop-opacity:0.58823532"
         offset="1" />
    </linearGradient>
    <linearGradient
       x1="32.251034"
       y1="6.1317081"
       x2="32.251034"
       y2="90.238609"
       id="linearGradient3772"
       xlink:href="#ButtonShadow-0"
       gradientUnits="userSpaceOnUse"
       gradientTransform="matrix(1.0238095,0,0,1.0119048,-1.1428571,-98.071429)" />
    <linearGradient
       x1="45.447727"
       y1="92.539597"
       x2="45.447727"
       y2="7.0165396"
       id="linearGradient9390"
       gradientUnits="userSpaceOnUse"
       gradientTransform="matrix(1.0058652,0,0,0.994169,100,0)">
      <stop
         id="stop9392"
         style="stop-color:#000000;stop-opacity:1"
         offset="0" />
      <stop
         id="stop9394"
         style="stop-color:#000000;stop-opacity:0.58823532"
         offset="1" />
    </linearGradient>
    <linearGradient
       x1="32.251034"
       y1="6.1317081"
       x2="32.251034"
       y2="90.238609"
       id="linearGradient3725"
       xlink:href="#ButtonShadow-0"
       gradientUnits="userSpaceOnUse"
       gradientTransform="matrix(1.0238095,0,0,1.0119048,-1.1428571,-98.071429)" />
    <linearGradient
       x1="45.447727"
       y1="92.539597"
       x2="45.447727"
       y2="7.0165396"
       id="linearGradient9397"
       gradientUnits="userSpaceOnUse"
       gradientTransform="matrix(1.0058652,0,0,0.994169,100,0)">
      <stop
         id="stop9399"
         style="stop-color:#000000;stop-opacity:1"
         offset="0" />
      <stop
         id="stop9401"
         style="stop-color:#000000;stop-opacity:0.58823532"
         offset="1" />
    </linearGradient>
    <linearGradient
       x1="32.251034"
       y1="6.1317081"
       x2="32.251034"
       y2="90.238609"
       id="linearGradient3721"
       xlink:href="#ButtonShadow-0"
       gradientUnits="userSpaceOnUse"
       gradientTransform="translate(0,-97)" />
    <linearGradient
       x1="45.447727"
       y1="92.539597"
       x2="45.447727"
       y2="7.0165396"
       id="linearGradient9404"
       gradientUnits="userSpaceOnUse"
       gradientTransform="matrix(1.0058652,0,0,0.994169,100,0)">
      <stop
         id="stop9406"
         style="stop-color:#000000;stop-opacity:1"
         offset="0" />
      <stop
         id="stop9408"
         style="stop-color:#000000;stop-opacity:0.58823532"
         offset="1" />
    </linearGradient>
    <linearGradient
       x1="36.357143"
       y1="6"
       x2="36.357143"
       y2="63.893143"
       id="linearGradient3188"
       xlink:href="#linearGradient3737"
       gradientUnits="userSpaceOnUse" />
    <linearGradient
       id="linearGradient3737">
      <stop
         id="stop3739"
         style="stop-color:#ffffff;stop-opacity:1"
         offset="0" />
      <stop
         id="stop3741"
         style="stop-color:#ffffff;stop-opacity:0"
         offset="1" />
    </linearGradient>
    <linearGradient
       x1="6"
       y1="77.09375"
       x2="32.030617"
       y2="77.09375"
       id="linearGradient3287"
       xlink:href="#linearGradient3273"
       gradientUnits="userSpaceOnUse"
       gradientTransform="matrix(-1,0,0,1,96.030615,0)" />
    <linearGradient
       id="linearGradient3273">
      <stop
         id="stop3275"
         style="stop-color:#7a7a7a;stop-opacity:1"
         offset="0" />
      <stop
         id="stop3281"
         style="stop-color:#f9f9f9;stop-opacity:1"
         offset="0.14636412" />
      <stop
         id="stop3283"
         style="stop-color:#c9c9c9;stop-opacity:1"
         offset="0.37253973" />
      <stop
         id="stop3277"
         style="stop-color:#dedede;stop-opacity:0"
         offset="1" />
    </linearGradient>
    <linearGradient
       x1="6"
       y1="77.09375"
       x2="32"
       y2="77.09375"
       id="linearGradient3279"
       xlink:href="#linearGradient3322"
       gradientUnits="userSpaceOnUse" />
    <linearGradient
       id="linearGradient3322">
      <stop
         id="stop3324"
         style="stop-color:#7a7a7a;stop-opacity:1"
         offset="0" />
      <stop
         id="stop3326"
         style="stop-color:#f9f9f9;stop-opacity:1"
         offset="0.2032043" />
      <stop
         id="stop3328"
         style="stop-color:#c9c9c9;stop-opacity:1"
         offset="0.42969123" />
      <stop
         id="stop3330"
         style="stop-color:#dedede;stop-opacity:0"
         offset="1" />
    </linearGradient>
    <linearGradient
       x1="48"
       y1="77.09375"
       x2="48"
       y2="90"
       id="linearGradient3460"
       xlink:href="#linearGradient3448"
       gradientUnits="userSpaceOnUse" />
    <linearGradient
       id="linearGradient3448">
      <stop
         id="stop3450"
         style="stop-color:#000000;stop-opacity:1"
         offset="0" />
      <stop
         id="stop3452"
         style="stop-color:#000000;stop-opacity:0"
         offset="1" />
    </linearGradient>
    <linearGradient
       x1="43.05357"
       y1="80.14286"
       x2="43.05357"
       y2="82.00309"
       id="linearGradient4196"
       xlink:href="#linearGradient3448"
       gradientUnits="userSpaceOnUse" />
    <linearGradient
       id="linearGradient9431">
      <stop
         id="stop9433"
         style="stop-color:#000000;stop-opacity:1"
         offset="0" />
      <stop
         id="stop9435"
         style="stop-color:#000000;stop-opacity:0"
         offset="1" />
    </linearGradient>
    <linearGradient
       x1="46"
       y1="6"
       x2="46"
       y2="78.000145"
       id="linearGradient3179"
       xlink:href="#linearGradient4327"
       gradientUnits="userSpaceOnUse" />
    <linearGradient
       id="linearGradient4327">
      <stop
         id="stop4329"
         style="stop-color:#f0f0f0;stop-opacity:1"
         offset="0" />
      <stop
         id="stop4331"
         style="stop-color:#b4b4b4;stop-opacity:1"
         offset="1" />
    </linearGradient>
    <linearGradient
       x1="18.742928"
       y1="8.046936"
       x2="109.1929"
       y2="68.516502"
       id="linearGradient3551"
       xlink:href="#linearGradient3220"
       gradientUnits="userSpaceOnUse"
       gradientTransform="matrix(1,0,0,-1,0,84)" />
    <linearGradient
       id="linearGradient3220">
      <stop
         id="stop3222"
         style="stop-color:#ffffff;stop-opacity:1"
         offset="0" />
      <stop
         id="stop3224"
         style="stop-color:#bfbfbf;stop-opacity:0"
         offset="1" />
    </linearGradient>
    <linearGradient
       x1="6"
       y1="75.5"
       x2="45.219246"
       y2="75.5"
       id="linearGradient3454"
       xlink:href="#linearGradient3448"
       gradientUnits="userSpaceOnUse"
       gradientTransform="matrix(-1,0,0,1,96,-2)" />
    <linearGradient
       id="linearGradient9446">
      <stop
         id="stop9448"
         style="stop-color:#000000;stop-opacity:1"
         offset="0" />
      <stop
         id="stop9450"
         style="stop-color:#000000;stop-opacity:0"
         offset="1" />
    </linearGradient>
    <linearGradient
       x1="15.656256"
       y1="69.394279"
       x2="46.594883"
       y2="39.82095"
       id="linearGradient3781"
       xlink:href="#linearGradient3220"
       gradientUnits="userSpaceOnUse"
       gradientTransform="matrix(1.1165614,0,0,1.1165614,0.8046986,-5.6759082)" />
    <linearGradient
       id="linearGradient9453">
      <stop
         id="stop9455"
         style="stop-color:#ffffff;stop-opacity:1"
         offset="0" />
      <stop
         id="stop9457"
         style="stop-color:#bfbfbf;stop-opacity:0"
         offset="1" />
    </linearGradient>
    <clipPath
       id="clipPath3785">
      <rect
         width="84"
         height="72"
         rx="6"
         ry="6"
         x="6"
         y="6"
         id="rect3787"
         style="fill:#ffffff;fill-opacity:1;fill-rule:nonzero;stroke:none" />
    </clipPath>
    <filter
       x="-0.12267826"
       y="-0.17991199"
       width="1.2453564"
       height="1.3598239"
       color-interpolation-filters="sRGB"
       id="filter3829">
      <feGaussianBlur
         id="feGaussianBlur3831"
         stdDeviation="3.5487715" />
    </filter>
    <filter
       x="-0.11444673"
       y="-1.4149175"
       width="1.2288935"
       height="3.8298349"
       color-interpolation-filters="sRGB"
       id="filter4180">
      <feGaussianBlur
         id="feGaussianBlur4182"
         stdDeviation="3.5372897" />
    </filter>
    <radialGradient
       cx="48"
       cy="84"
       r="30"
       fx="48"
       fy="84"
       id="radialGradient4138"
       xlink:href="#linearGradient3313"
       gradientUnits="userSpaceOnUse"
       gradientTransform="matrix(1.0666667,0,0,0.06666667,-3.2,77.4)" />
    <linearGradient
       id="linearGradient3313">
      <stop
         id="stop3315"
         style="stop-color:#4dbeff;stop-opacity:1"
         offset="0" />
      <stop
         id="stop4186"
         style="stop-color:#1379ff;stop-opacity:0.65040648"
         offset="0.67213112" />
      <stop
         id="stop3317"
         style="stop-color:#0066ff;stop-opacity:0"
         offset="1" />
    </linearGradient>
    <inkscape:perspective
       id="perspective11534"
       inkscape:persp3d-origin="0.5 : 0.33333333 : 1"
       inkscape:vp_z="1 : 0.5 : 1"
       inkscape:vp_y="0 : 1000 : 0"
       inkscape:vp_x="0 : 0.5 : 1"
       sodipodi:type="inkscape:persp3d" />
    <inkscape:perspective
       id="perspective16948"
       inkscape:persp3d-origin="0.5 : 0.33333333 : 1"
       inkscape:vp_z="1 : 0.5 : 1"
       inkscape:vp_y="0 : 1000 : 0"
       inkscape:vp_x="0 : 0.5 : 1"
       sodipodi:type="inkscape:persp3d" />
    <linearGradient
       id="linearGradient3737-1">
      <stop
         id="stop3739-4"
         style="stop-color:#ffffff;stop-opacity:1"
         offset="0" />
      <stop
         id="stop3741-91"
         style="stop-color:#ffffff;stop-opacity:0"
         offset="1" />
    </linearGradient>
    <linearGradient
       id="linearGradient3687">
      <stop
         id="stop3689"
         style="stop-color:#ffffff;stop-opacity:1"
         offset="0" />
      <stop
         id="stop3691"
         style="stop-color:#ffffff;stop-opacity:0"
         offset="1" />
    </linearGradient>
    <linearGradient
       id="linearGradient16961">
      <stop
         id="stop16963"
         style="stop-color:#ffffff;stop-opacity:1"
         offset="0" />
      <stop
         id="stop16965"
         style="stop-color:#ffffff;stop-opacity:0"
         offset="1" />
    </linearGradient>
    <linearGradient
       id="linearGradient3737-4">
      <stop
         id="stop3739-5"
         style="stop-color:#ffffff;stop-opacity:1"
         offset="0" />
      <stop
         id="stop3741-2"
         style="stop-color:#ffffff;stop-opacity:0"
         offset="1" />
    </linearGradient>
    <linearGradient
       id="linearGradient3175-4">
      <stop
         id="stop3177-5"
         style="stop-color:#92972a;stop-opacity:1;"
         offset="0" />
      <stop
         id="stop3179-1"
         style="stop-color:#34371d;stop-opacity:1;"
         offset="1" />
    </linearGradient>
    <linearGradient
       id="linearGradient3737-5">
      <stop
         id="stop3739-6"
         style="stop-color:#ffffff;stop-opacity:1"
         offset="0" />
      <stop
         id="stop3741-9"
         style="stop-color:#ffffff;stop-opacity:0"
         offset="1" />
    </linearGradient>
    <linearGradient
       id="linearGradient3700-8">
      <stop
         id="stop3702-5"
         style="stop-color:#000000;stop-opacity:1"
         offset="0" />
      <stop
         id="stop3704-6"
         style="stop-color:#1f1f1f;stop-opacity:1"
         offset="1" />
    </linearGradient>
    <linearGradient
       x1="43.30954"
       y1="91.125015"
       x2="43.30954"
       y2="82.822479"
       id="linearGradient3831"
       xlink:href="#linearGradient3734"
       gradientUnits="userSpaceOnUse" />
    <linearGradient
       id="linearGradient3734">
      <stop
         id="stop3736"
         style="stop-color:#bfbfbf;stop-opacity:1"
         offset="0" />
      <stop
         id="stop3738"
         style="stop-color:#9a9a9a;stop-opacity:1"
         offset="1" />
    </linearGradient>
    <linearGradient
       x1="48"
       y1="86.071426"
       x2="48"
       y2="72.303963"
       id="linearGradient3769"
       xlink:href="#linearGradient3771"
       gradientUnits="userSpaceOnUse"
       gradientTransform="translate(0,1)" />
    <linearGradient
       id="linearGradient3771">
      <stop
         id="stop3773"
         style="stop-color:#ababab;stop-opacity:0"
         offset="0" />
      <stop
         id="stop3779"
         style="stop-color:#e6e6e6;stop-opacity:1"
         offset="0.15620089" />
      <stop
         id="stop3777"
         style="stop-color:#aaaaaa;stop-opacity:1"
         offset="1" />
    </linearGradient>
    <linearGradient
       x1="37"
       y1="72.089287"
       x2="37"
       y2="84"
       id="linearGradient3797"
       xlink:href="#linearGradient3803"
       gradientUnits="userSpaceOnUse"
       gradientTransform="translate(0,1)" />
    <linearGradient
       id="linearGradient3803">
      <stop
         id="stop3805"
         style="stop-color:#000000;stop-opacity:1"
         offset="0" />
      <stop
         id="stop3807"
         style="stop-color:#000000;stop-opacity:0"
         offset="1" />
    </linearGradient>
    <linearGradient
       x1="60"
       y1="70"
       x2="60"
       y2="84.028442"
       id="linearGradient3809"
       xlink:href="#linearGradient3803"
       gradientUnits="userSpaceOnUse"
       gradientTransform="translate(0,1)" />
    <linearGradient
       id="linearGradient16997">
      <stop
         id="stop16999"
         style="stop-color:#000000;stop-opacity:1"
         offset="0" />
      <stop
         id="stop17001"
         style="stop-color:#000000;stop-opacity:0"
         offset="1" />
    </linearGradient>
    <linearGradient
       x1="44.69643"
       y1="66.995277"
       x2="44.69643"
       y2="78.306824"
       id="linearGradient3813"
       xlink:href="#linearGradient3803"
       gradientUnits="userSpaceOnUse"
       gradientTransform="matrix(1,0,0,0.4210526,-1.3176576e-7,44.789471)" />
    <linearGradient
       id="linearGradient17004">
      <stop
         id="stop17006"
         style="stop-color:#000000;stop-opacity:1"
         offset="0" />
      <stop
         id="stop17008"
         style="stop-color:#000000;stop-opacity:0"
         offset="1" />
    </linearGradient>
    <linearGradient
       x1="45.447727"
       y1="92.539597"
       x2="45.447727"
       y2="7.0165396"
       id="ButtonShadow"
       gradientUnits="userSpaceOnUse"
       gradientTransform="scale(1.0058652,0.994169)">
      <stop
         id="stop3750"
         style="stop-color:#000000;stop-opacity:1"
         offset="0" />
      <stop
         id="stop3752"
         style="stop-color:#000000;stop-opacity:0.58823532"
         offset="1" />
    </linearGradient>
    <linearGradient
       x1="45.447727"
       y1="92.539597"
       x2="45.447727"
       y2="7.0165396"
       id="linearGradient17015"
       gradientUnits="userSpaceOnUse"
       gradientTransform="scale(1.0058652,0.994169)">
      <stop
         id="stop17017"
         style="stop-color:#000000;stop-opacity:1"
         offset="0" />
      <stop
         id="stop17019"
         style="stop-color:#000000;stop-opacity:0.58823532"
         offset="1" />
    </linearGradient>
    <linearGradient
       x1="45.447727"
       y1="92.539597"
       x2="45.447727"
       y2="7.0165396"
       id="linearGradient17022"
       gradientUnits="userSpaceOnUse"
       gradientTransform="scale(1.0058652,0.994169)">
      <stop
         id="stop17024"
         style="stop-color:#000000;stop-opacity:1"
         offset="0" />
      <stop
         id="stop17026"
         style="stop-color:#000000;stop-opacity:0.58823532"
         offset="1" />
    </linearGradient>
    <linearGradient
       x1="45.447727"
       y1="92.539597"
       x2="45.447727"
       y2="7.0165396"
       id="linearGradient17029"
       gradientUnits="userSpaceOnUse"
       gradientTransform="scale(1.0058652,0.994169)">
      <stop
         id="stop17031"
         style="stop-color:#000000;stop-opacity:1"
         offset="0" />
      <stop
         id="stop17033"
         style="stop-color:#000000;stop-opacity:0.58823532"
         offset="1" />
    </linearGradient>
    <linearGradient
       inkscape:collect="always"
       xlink:href="#ButtonShadow"
       id="linearGradient16938"
       gradientUnits="userSpaceOnUse"
       x1="48"
       y1="92"
       x2="48"
       y2="7" />
    <linearGradient
       x1="45.447727"
       y1="92.539597"
       x2="45.447727"
       y2="7.0165396"
       id="linearGradient17036"
       gradientUnits="userSpaceOnUse"
       gradientTransform="scale(1.0058652,0.994169)">
      <stop
         id="stop17038"
         style="stop-color:#000000;stop-opacity:1"
         offset="0" />
      <stop
         id="stop17040"
         style="stop-color:#000000;stop-opacity:0.58823532"
         offset="1" />
    </linearGradient>
    <inkscape:perspective
       id="perspective17928"
       inkscape:persp3d-origin="0.5 : 0.33333333 : 1"
       inkscape:vp_z="1 : 0.5 : 1"
       inkscape:vp_y="0 : 1000 : 0"
       inkscape:vp_x="0 : 0.5 : 1"
       sodipodi:type="inkscape:persp3d" />
    <inkscape:perspective
       id="perspective18170"
       inkscape:persp3d-origin="0.5 : 0.33333333 : 1"
       inkscape:vp_z="1 : 0.5 : 1"
       inkscape:vp_y="0 : 1000 : 0"
       inkscape:vp_x="0 : 0.5 : 1"
       sodipodi:type="inkscape:persp3d" />
    <inkscape:perspective
       id="perspective18921"
       inkscape:persp3d-origin="0.5 : 0.33333333 : 1"
       inkscape:vp_z="1 : 0.5 : 1"
       inkscape:vp_y="0 : 1000 : 0"
       inkscape:vp_x="0 : 0.5 : 1"
       sodipodi:type="inkscape:persp3d" />
    <inkscape:perspective
       id="perspective19056"
       inkscape:persp3d-origin="0.5 : 0.33333333 : 1"
       inkscape:vp_z="1 : 0.5 : 1"
       inkscape:vp_y="0 : 1000 : 0"
       inkscape:vp_x="0 : 0.5 : 1"
       sodipodi:type="inkscape:persp3d" />
    <linearGradient
       inkscape:collect="always"
       xlink:href="#linearGradient3700"
       id="linearGradient16874"
       gradientUnits="userSpaceOnUse"
       gradientTransform="translate(-100,0)"
       x1="48"
       y1="90"
       x2="48"
       y2="5.9877172" />
    <linearGradient
       id="linearGradient3700">
      <stop
         id="stop3702"
         style="stop-color:#2276c5;stop-opacity:1"
         offset="0" />
      <stop
         id="stop3704"
         style="stop-color:#68baf4;stop-opacity:1"
         offset="1" />
    </linearGradient>
    <linearGradient
       y2="5.9877172"
       x2="48"
       y1="90"
       x1="48"
       gradientTransform="translate(268.1497,311.21251)"
       gradientUnits="userSpaceOnUse"
       id="linearGradient19065"
       xlink:href="#linearGradient3700"
       inkscape:collect="always" />
    <inkscape:perspective
       id="perspective19094"
       inkscape:persp3d-origin="0.5 : 0.33333333 : 1"
       inkscape:vp_z="1 : 0.5 : 1"
       inkscape:vp_y="0 : 1000 : 0"
       inkscape:vp_x="0 : 0.5 : 1"
       sodipodi:type="inkscape:persp3d" />
    <linearGradient
       inkscape:collect="always"
       xlink:href="#ButtonShadow-0-9"
       id="linearGradient16914"
       gradientUnits="userSpaceOnUse"
       gradientTransform="translate(100,-97)"
       x1="32.251034"
       y1="6.1317081"
       x2="32.251034"
       y2="90.238609" />
    <linearGradient
       x1="45.447727"
       y1="92.539597"
       x2="45.447727"
       y2="7.0165396"
       id="ButtonShadow-0-9"
       gradientUnits="userSpaceOnUse"
       gradientTransform="matrix(1.0058652,0,0,0.994169,100,0)">
      <stop
         id="stop3750-8-9"
         style="stop-color:#000000;stop-opacity:1"
         offset="0" />
      <stop
         id="stop3752-5-8"
         style="stop-color:#000000;stop-opacity:0.58823532"
         offset="1" />
    </linearGradient>
    <linearGradient
       y2="90.238609"
       x2="32.251034"
       y1="6.1317081"
       x1="32.251034"
       gradientTransform="translate(269.66493,-408.72774)"
       gradientUnits="userSpaceOnUse"
       id="linearGradient19103"
       xlink:href="#ButtonShadow-0-9"
       inkscape:collect="always" />
    <linearGradient
       inkscape:collect="always"
       xlink:href="#linearGradient3700"
       id="linearGradient19128"
       gradientUnits="userSpaceOnUse"
       gradientTransform="translate(268.1497,311.21251)"
       x1="48"
       y1="90"
       x2="48"
       y2="5.9877172" />
    <linearGradient
       inkscape:collect="always"
       xlink:href="#ButtonShadow-0-9"
       id="linearGradient19130"
       gradientUnits="userSpaceOnUse"
       gradientTransform="translate(269.66493,-408.72774)"
       x1="32.251034"
       y1="6.1317081"
       x2="32.251034"
       y2="90.238609" />
    <linearGradient
       inkscape:collect="always"
       xlink:href="#linearGradient3700"
       id="linearGradient19140"
       gradientUnits="userSpaceOnUse"
       gradientTransform="translate(268.1497,311.21251)"
       x1="48"
       y1="90"
       x2="48"
       y2="5.9877172" />
    <linearGradient
       inkscape:collect="always"
       xlink:href="#ButtonShadow-0-9"
       id="linearGradient19142"
       gradientUnits="userSpaceOnUse"
       gradientTransform="translate(269.66493,-408.72774)"
       x1="32.251034"
       y1="6.1317081"
       x2="32.251034"
       y2="90.238609" />
    <linearGradient
       inkscape:collect="always"
       xlink:href="#linearGradient3700"
       id="linearGradient19150"
       gradientUnits="userSpaceOnUse"
       gradientTransform="translate(268.1497,311.21251)"
       x1="48"
       y1="90"
       x2="48"
       y2="5.9877172" />
    <linearGradient
       inkscape:collect="always"
       xlink:href="#ButtonShadow-0-9"
       id="linearGradient19152"
       gradientUnits="userSpaceOnUse"
       gradientTransform="translate(264.80996,-400.14339)"
       x1="32.251034"
       y1="6.1317081"
       x2="32.251034"
       y2="90.238609" />
    <linearGradient
       inkscape:collect="always"
       xlink:href="#ButtonShadow-0-9"
       id="linearGradient19155"
       gradientUnits="userSpaceOnUse"
       gradientTransform="matrix(5.3537739,0,0,1.0350114,22.782031,-316.00378)"
       x1="32.251034"
       y1="6.1317081"
       x2="32.251034"
       y2="90.238609" />
    <linearGradient
       inkscape:collect="always"
       xlink:href="#linearGradient3700"
       id="linearGradient19158"
       gradientUnits="userSpaceOnUse"
       gradientTransform="matrix(5.3056714,0,0,1.0590627,43.315594,332.5764)"
       x1="48"
       y1="90"
       x2="48"
       y2="5.9877172" />
    <inkscape:perspective
       id="perspective19168"
       inkscape:persp3d-origin="0.5 : 0.33333333 : 1"
       inkscape:vp_z="1 : 0.5 : 1"
       inkscape:vp_y="0 : 1000 : 0"
       inkscape:vp_x="0 : 0.5 : 1"
       sodipodi:type="inkscape:persp3d" />
    <linearGradient
       inkscape:collect="always"
       xlink:href="#ButtonShadow-0-9-3"
       id="linearGradient19155-8"
       gradientUnits="userSpaceOnUse"
       gradientTransform="matrix(5.3537739,0,0,1.0350114,22.782031,-316.00378)"
       x1="32.251034"
       y1="6.1317081"
       x2="32.251034"
       y2="90.238609" />
    <linearGradient
       x1="45.447727"
       y1="92.539597"
       x2="45.447727"
       y2="7.0165396"
       id="ButtonShadow-0-9-3"
       gradientUnits="userSpaceOnUse"
       gradientTransform="matrix(1.0058652,0,0,0.994169,100,0)">
      <stop
         id="stop3750-8-9-3"
         style="stop-color:#000000;stop-opacity:1"
         offset="0" />
      <stop
         id="stop3752-5-8-0"
         style="stop-color:#000000;stop-opacity:0.58823532"
         offset="1" />
    </linearGradient>
    <linearGradient
       y2="90.238609"
       x2="32.251034"
       y1="6.1317081"
       x1="32.251034"
       gradientTransform="matrix(5.3537739,0,0,1.0350114,18.762246,-313.43366)"
       gradientUnits="userSpaceOnUse"
       id="linearGradient19177"
       xlink:href="#linearGradient3175-4"
       inkscape:collect="always" />
    <linearGradient
       inkscape:collect="always"
       xlink:href="#linearGradient3175-4"
       id="linearGradient19198"
       gradientUnits="userSpaceOnUse"
       gradientTransform="matrix(5.3537739,0,0,1.0350114,18.762246,-313.43366)"
       x1="32.251034"
       y1="6.1317081"
       x2="32.251034"
       y2="90.238609" />
    <linearGradient
       inkscape:collect="always"
       xlink:href="#ButtonShadow-0-9"
       id="linearGradient19226"
       gradientUnits="userSpaceOnUse"
       gradientTransform="matrix(5.3537739,0,0,1.0350114,22.782031,-316.00378)"
       x1="32.251034"
       y1="6.1317081"
       x2="32.251034"
       y2="90.238609" />
    <linearGradient
       inkscape:collect="always"
       xlink:href="#linearGradient3175-4"
       id="linearGradient19228"
       gradientUnits="userSpaceOnUse"
       gradientTransform="matrix(5.3537739,0,0,1.0350114,18.762246,-313.43366)"
       x1="32.251034"
       y1="6.1317081"
       x2="32.251034"
       y2="90.238609" />
  </defs>
  <sodipodi:namedview
     id="base"
     pagecolor="#ffffff"
     bordercolor="#666666"
     borderopacity="1.0"
     inkscape:pageopacity="0.0"
     inkscape:pageshadow="2"
     inkscape:zoom="1.979899"
     inkscape:cx="148.32634"
     inkscape:cy="42.669499"
     inkscape:document-units="px"
     inkscape:current-layer="layer2"
     showgrid="false"
     showborder="true"
     borderlayer="false"
     inkscape:window-width="1280"
     inkscape:window-height="725"
     inkscape:window-x="0"
     inkscape:window-y="24"
     inkscape:window-maximized="1" />
  <metadata
     id="metadata7">
    <rdf:RDF>
      <cc:Work
         rdf:about="">
        <dc:format>image/svg+xml</dc:format>
        <dc:type
           rdf:resource="http://purl.org/dc/dcmitype/StillImage" />
        <dc:title></dc:title>
      </cc:Work>
    </rdf:RDF>
  </metadata>
  <g
     inkscape:label="Capa 1"
     inkscape:groupmode="layer"
     id="layer1"
     style="display:none"
     transform="translate(-239.07401,-330.4213)">
    <image
       y="371.21933"
       x="240.64285"
       id="image2826"
       height="48"
       width="48"
       xlink:href="file:///home/lgarcia/aurex-google-code/trunk/aurex-artwork/aurex-logos/ubiquity/pixmaps/ubiquity.png" />
  </g>
  <g
     inkscape:groupmode="layer"
     id="layer2"
     inkscape:label="Capa"
     style="display:inline"
     transform="translate(-239.07401,-330.4213)">
    <g
       id="g19200"
       transform="translate(188.18891,110.62763)">
      <rect
         width="449.71701"
         height="86.940964"
         rx="8.6784935"
         ry="6.2100687"
         x="54.904877"
         y="-309.79367"
         transform="scale(1,-1)"
         id="rect3716"
         style="opacity:0.45;fill:url(#linearGradient19226);fill-opacity:1;fill-rule:nonzero;stroke:none;display:inline" />
      <rect
         width="449.71701"
         height="86.940964"
         rx="8.6784935"
         ry="6.2100687"
         x="50.885098"
         y="-307.22357"
         transform="scale(1,-1)"
         id="rect3716-4"
         style="opacity:0.89387758;fill:url(#linearGradient19228);fill-opacity:1;fill-rule:nonzero;stroke:none;display:inline" />
      <g
         transform="matrix(0.29618163,0,0,0.29618163,146.82327,203.70726)"
         id="g3767">
        <g
           transform="matrix(4.5943167,0,0,4.130933,3027.3955,-2677.3851)"
           id="flowRoot3714-6-5-9-0-8-8"
           style="font-size:40px;font-style:normal;font-weight:normal;fill:#afab4c;fill-opacity:1;stroke:none;font-family:Bitstream Vera Sans">
          <path
             d="m -606.05859,689.40512 m -2.86606,16.30764 c -1.45835,10e-6 -4.6665,-0.72824 -5.6691,-2.06939 -1.1198,-1.49739 -1.67969,-3.56119 -1.67969,-6.1914 0,-2.47395 0.55989,-4.45962 1.67969,-5.95703 0.7552,-1.01561 1.56249,-1.67316 2.42188,-1.97266 l 0,-3.18359 c -2.16147,0.3646 -3.90626,1.25653 -5.23438,2.67578 -1.77084,1.90106 -2.65625,4.71355 -2.65625,8.4375 0,3.58073 0.88541,6.38672 2.65625,8.41797 1.74479,1.99218 3.91275,2.98828 6.50391,2.98828 l 3.57422,-0.0195 c 2.64321,0 4.80466,-0.98959 6.48437,-2.96875 1.78383,-2.09635 2.67576,-4.90885 2.67578,-8.4375 -2e-5,-3.84113 -0.89195,-6.67967 -2.67578,-8.51563 -1.65367,-1.71873 -3.39195,-2.5781 -5.21484,-2.57812 -1.82289,-2e-5 -0.7031,3.06638 0,3.0664 0.7031,2e-5 1.5104,0.59247 2.42187,1.77735 1.11977,1.45835 1.67967,3.54168 1.67969,6.25 -2e-5,2.90365 -0.55341,4.96094 -1.66016,6.17187 -1.23699,1.35417 -4.0705,2.10845 -5.30746,2.10845 m 2.86606,-19.37407"
             id="path4949"
             style="fill:#afab4c;fill-opacity:1" />
        </g>
        <path
           d="m 303.04577,729.11334 c 0,189.68323 -153.76864,343.45186 -343.451871,343.45186 -189.683229,0 -343.451879,-153.76863 -343.451879,-343.45186 0,-189.68323 153.76865,-343.45187 343.451879,-343.45187 189.683231,0 343.451871,153.76864 343.451871,343.45187 z"
           transform="matrix(0.21164427,0,0,0.21164427,237.47881,50.371958)"
           id="path4228-9-9-7-8-3-1"
           style="fill:none;stroke:#afab4c;stroke-width:69.12093353;stroke-miterlimit:4;stroke-opacity:1" />
        <g
           transform="matrix(0,-4.5943167,-4.130933,0,3403.1165,-2593.7837)"
           id="flowRoot3714-6-5-9-0-8-6"
           style="font-size:40px;font-style:normal;font-weight:normal;fill:#afab4c;fill-opacity:1;stroke:none;font-family:Bitstream Vera Sans">
          <path
             d="m -606.05859,689.40512 c -0.84637,2e-5 -1.26955,0.94403 -1.26953,2.83203 l 0,13.39844 c 1.23696,0 2.47394,-0.67708 3.71093,-2.03125 1.10675,-1.21093 1.66014,-3.26822 1.66016,-6.17187 -2e-5,-2.70832 -0.55992,-4.79165 -1.67969,-6.25 -0.91147,-1.18488 -1.71877,-1.77733 -2.42187,-1.77735 m 0,-3.0664 c 1.82289,2e-5 3.56117,0.85939 5.21484,2.57812 1.78383,1.83596 2.67576,4.6745 2.67578,8.51563 -2e-5,3.52865 -0.89195,6.34115 -2.67578,8.4375 -1.67971,1.97916 -3.84116,2.96875 -6.48437,2.96875 l 0,7.85156 -3.57422,0 0,-7.83203 c -2.59116,0 -4.75912,-0.9961 -6.50391,-2.98828 -1.77084,-2.03125 -2.65625,-4.83724 -2.65625,-8.41797 0,-3.72395 0.88541,-6.53644 2.65625,-8.4375 1.32812,-1.41925 3.07291,-2.31118 5.23438,-2.67578 l 0,3.18359 c -0.85939,0.2995 -1.66668,0.95705 -2.42188,1.97266 -1.1198,1.49741 -1.67969,3.48308 -1.67969,5.95703 0,2.63021 0.55989,4.69401 1.67969,6.1914 1.0026,1.34115 2.23306,2.01173 3.69141,2.01172 l 0,-13.41797 c -2e-5,-3.93227 1.61457,-5.89841 4.84375,-5.89843"
             id="path3466"
             style="fill:#afab4c" />
        </g>
        <path
           d="m 303.04577,729.11334 c 0,189.68323 -153.76864,343.45186 -343.451871,343.45186 -189.683229,0 -343.451879,-153.76863 -343.451879,-343.45186 0,-189.68323 153.76865,-343.45187 343.451879,-343.45187 189.683231,0 343.451871,153.76864 343.451871,343.45187 z"
           transform="matrix(0,-0.21164427,-0.21164427,0,675.35951,196.1329)"
           id="path4228-9-9-7-8-3-8"
           style="fill:none;stroke:#afab4c;stroke-width:69.12093353;stroke-miterlimit:4;stroke-opacity:1" />
        <g
           transform="matrix(0,4.5943167,4.130933,0,-2798.5218,3003.153)"
           id="flowRoot3714-6-5-9-0-8-4"
           style="font-size:40px;font-style:normal;font-weight:normal;fill:#afab4c;fill-opacity:1;stroke:none;font-family:Bitstream Vera Sans">
          <path
             d="m -606.05859,689.40512 c -0.84637,2e-5 -1.26955,0.94403 -1.26953,2.83203 l 0,13.39844 c 1.23696,0 2.47394,-0.67708 3.71093,-2.03125 1.10675,-1.21093 1.66014,-3.26822 1.66016,-6.17187 -2e-5,-2.70832 -0.55992,-4.79165 -1.67969,-6.25 -0.91147,-1.18488 -1.71877,-1.77733 -2.42187,-1.77735 m 0,-3.0664 c 1.82289,2e-5 3.56117,0.85939 5.21484,2.57812 1.78383,1.83596 2.67576,4.6745 2.67578,8.51563 -2e-5,3.52865 -0.89195,6.34115 -2.67578,8.4375 -1.67971,1.97916 -3.84116,2.96875 -6.48437,2.96875 l 0,7.85156 -3.57422,0 0,-7.83203 c -2.59116,0 -4.75912,-0.9961 -6.50391,-2.98828 -1.77084,-2.03125 -2.65625,-4.83724 -2.65625,-8.41797 0,-3.72395 0.88541,-6.53644 2.65625,-8.4375 1.32812,-1.41925 3.07291,-2.31118 5.23438,-2.67578 l 0,3.18359 c -0.85939,0.2995 -1.66668,0.95705 -2.42188,1.97266 -1.1198,1.49741 -1.67969,3.48308 -1.67969,5.95703 0,2.63021 0.55989,4.69401 1.67969,6.1914 1.0026,1.34115 2.23306,2.01173 3.69141,2.01172 l 0,-13.41797 c -2e-5,-3.93227 1.61457,-5.89841 4.84375,-5.89843"
             id="path3470"
             style="fill:#afab4c" />
        </g>
        <path
           d="m 303.04577,729.11334 c 0,189.68323 -153.76864,343.45186 -343.451871,343.45186 -189.683229,0 -343.451879,-153.76863 -343.451879,-343.45186 0,-189.68323 153.76865,-343.45187 343.451879,-343.45187 189.683231,0 343.451871,153.76864 343.451871,343.45187 z"
           transform="matrix(0,0.21164427,0.21164427,0,-70.764806,213.23634)"
           id="path4228-9-9-7-8-3-2"
           style="fill:none;stroke:#afab4c;stroke-width:69.12093353;stroke-miterlimit:4;stroke-opacity:1" />
        <g
           transform="matrix(4.5943167,0,0,4.130933,3172.5995,-2677.5729)"
           id="flowRoot3714-6-5-9-0-8-0"
           style="font-size:40px;font-style:normal;font-weight:normal;fill:#afab4c;fill-opacity:1;stroke:none;font-family:Bitstream Vera Sans">
          <path
             d="m -607.11988,706.13668 -0.20823,10.5536 -3.57422,0 0,-7.83203 c 0.1308,-5.71024 0.22132,1.08655 0,-3.20313 l 0,-13.41797 c -2e-5,-3.93227 1.61457,-5.89841 4.84375,-5.89843 m 0,0 c 1.82289,2e-5 3.56117,0.85939 5.21484,2.57812 1.78383,2.06756 2.89592,4.28849 3.6595,7.61344 -4.29157,4.62759 -5.70227,-8.14388 -9.49908,-4.26873"
             id="path5159"
             style="fill:#afab4c;fill-opacity:1" />
        </g>
        <path
           d="m 303.04577,729.11334 c 0,189.68323 -153.76864,343.45186 -343.451871,343.45186 -189.683229,0 -343.451879,-153.76863 -343.451879,-343.45186 0,-189.68323 153.76865,-343.45187 343.451879,-343.45187 189.683231,0 343.451871,153.76864 343.451871,343.45187 z"
           transform="matrix(0.21164427,0,0,0.21164427,382.68288,50.184168)"
           id="path4228-9-9-7-8-3-0"
           style="fill:none;stroke:#afab4c;stroke-width:69.12093353;stroke-miterlimit:4;stroke-opacity:1" />
        <g
           transform="matrix(-4.5943167,0,0,4.130933,-2466.0179,-2681.4113)"
           id="flowRoot3714-6-5-9-0-8-2"
           style="font-size:40px;font-style:normal;font-weight:normal;fill:#afab4c;fill-opacity:1;stroke:none;font-family:Bitstream Vera Sans">
          <path
             d="m -617.37032,702.79419 c -1.77084,-2.03125 -2.06745,-0.14024 -2.06745,-3.72097 0,-3.72395 0.19127,-6.84524 1.96211,-8.7463 1.32812,-1.41925 3.00349,-2.54279 5.65086,-1.44057 l -0.9718,3.02919 c -1.9006,-0.54971 -2.09303,0.0946 -2.84823,1.11021 -1.1198,1.49741 -0.69802,3.26472 -0.69802,5.73867 0,2.63021 -2.14727,2.53238 -1.02747,4.02977"
             id="path5263"
             style="fill:#afab4c;fill-opacity:1" />
        </g>
        <g
           transform="matrix(-4.5943167,0,0,4.130933,-2132.0423,-2677.3851)"
           id="flowRoot3714-6-5-9-0-8-8-0"
           style="font-size:40px;font-style:normal;font-weight:normal;fill:#afab4c;fill-opacity:1;stroke:none;font-family:Bitstream Vera Sans">
          <path
             d="m -617.53204,708.60712 c 2.64321,0 4.80466,-0.98959 6.48437,-2.96875 1.78383,-2.09635 2.67576,-4.90885 2.67578,-8.4375 -2e-5,-3.84113 -0.89195,-6.67967 -2.67578,-8.51563 -1.65367,-1.71873 -3.39195,-2.5781 -5.21484,-2.57812 -1.82289,-2e-5 -0.7031,3.06638 0,3.0664 0.7031,2e-5 1.5104,0.59247 2.42187,1.77735 1.11977,1.45835 1.67967,3.54168 1.67969,6.25 -2e-5,2.90365 -0.55341,4.96094 -1.66016,6.17187 -1.23699,1.35417 -2.95987,2.10845 -4.19683,2.10845 m 17.38894,2.99103 -16.90304,0.1349 m 17.21478,-3.20316 c -1.45835,10e-6 -3.00055,-0.80544 -4.00315,-2.14659 -1.1198,-1.49739 -1.67969,-3.56119 -1.67969,-6.1914 0,-2.47395 0.55989,-4.45962 1.67969,-5.95703 0.7552,-1.01561 1.56249,-1.67316 2.42188,-1.97266 l 0,-3.18359 c -2.16147,0.3646 -3.90626,1.25653 -5.23438,2.67578 -1.77084,1.90106 -2.65625,4.71355 -2.65625,8.4375 0,3.58073 0.88541,6.38672 2.65625,8.41797 1.74479,1.99218 3.91275,2.98828 6.50391,2.98828"
             id="path4949-1"
             style="fill:#afab4c;fill-opacity:1" />
        </g>
        <path
           d="m 303.04577,729.11334 c 0,189.68323 -153.76864,343.45186 -343.451871,343.45186 -189.683229,0 -343.451879,-153.76863 -343.451879,-343.45186 0,-189.68323 153.76865,-343.45187 343.451879,-343.45187 189.683231,0 343.451871,153.76864 343.451871,343.45187 z"
           transform="matrix(-0.21164427,0,0,0.21164427,657.87432,50.371961)"
           id="path4228-9-9-7-8-3-1-0"
           style="fill:none;stroke:#afab4c;stroke-width:69.12093353;stroke-miterlimit:4;stroke-opacity:1" />
      </g>
      <g
         transform="matrix(0.44728891,0,0,0.44728891,15.772034,55.734636)"
         id="g19043">
        <g
           style="font-size:40px;font-style:normal;font-weight:normal;fill:#afab4c;fill-opacity:1;stroke:none;font-family:Bitstream Vera Sans"
           id="flowRoot3714-6-5-9-0-8-45-8"
           transform="matrix(4.685219,0,0,4.2126668,3054.4241,-2472.7987)">
          <path
             style="fill:#afab4c"
             id="path3414"
             d="m -606.05859,689.40512 c -0.84637,2e-5 -1.26955,0.94403 -1.26953,2.83203 l 0,13.39844 c 1.23696,0 2.47394,-0.67708 3.71093,-2.03125 1.10675,-1.21093 1.66014,-3.26822 1.66016,-6.17187 -2e-5,-2.70832 -0.55992,-4.79165 -1.67969,-6.25 -0.91147,-1.18488 -1.71877,-1.77733 -2.42187,-1.77735 m 0,-3.0664 c 1.82289,2e-5 3.56117,0.85939 5.21484,2.57812 1.78383,1.83596 2.67576,4.6745 2.67578,8.51563 -2e-5,3.52865 -0.89195,6.34115 -2.67578,8.4375 -1.67971,1.97916 -3.84116,2.96875 -6.48437,2.96875 l 0,7.85156 -3.57422,0 0,-7.83203 c -2.59116,0 -4.75912,-0.9961 -6.50391,-2.98828 -1.77084,-2.03125 -2.65625,-4.83724 -2.65625,-8.41797 0,-3.72395 0.88541,-6.53644 2.65625,-8.4375 1.32812,-1.41925 3.07291,-2.31118 5.23438,-2.67578 l 0,3.18359 c -0.85939,0.2995 -1.66668,0.95705 -2.42188,1.97266 -1.1198,1.49741 -1.67969,3.48308 -1.67969,5.95703 0,2.63021 0.55989,4.69401 1.67969,6.1914 1.0026,1.34115 2.23306,2.01173 3.69141,2.01172 l 0,-13.41797 c -2e-5,-3.93227 1.61457,-5.89841 4.84375,-5.89843" />
        </g>
        <path
           style="fill:none;stroke:#afab4c;stroke-width:14.91849709;stroke-miterlimit:4;stroke-opacity:1;stroke-dasharray:none"
           id="path4228-9-9-7-8-3-9-36"
           d="m 274.71388,466.29512 a 74.127845,74.127845 0 0 1 -148.25569,0 74.127845,74.127845 0 1 1 148.25569,0 z" />
      </g>
    </g>
  </g>
</svg>
