<?xml version="1.0" encoding="UTF-8" standalone="no"?>
<!-- Created with Inkscape (http://www.inkscape.org/) -->

<svg
   xmlns:dc="http://purl.org/dc/elements/1.1/"
   xmlns:cc="http://creativecommons.org/ns#"
   xmlns:rdf="http://www.w3.org/1999/02/22-rdf-syntax-ns#"
   xmlns:svg="http://www.w3.org/2000/svg"
   xmlns="http://www.w3.org/2000/svg"
   xmlns:xlink="http://www.w3.org/1999/xlink"
   xmlns:sodipodi="http://sodipodi.sourceforge.net/DTD/sodipodi-0.dtd"
   xmlns:inkscape="http://www.inkscape.org/namespaces/inkscape"
   width="566.92914"
   height="354.33069"
   id="svg2"
   version="1.1"
   inkscape:version="0.47 r22583"
   sodipodi:docname="space-sunrise.svg"
   style="display:inline;enable-background:new"
   enable-background="new">
  <defs
     id="defs4">
    <inkscape:perspective
       sodipodi:type="inkscape:persp3d"
       inkscape:vp_x="0 : 177.16534 : 1"
       inkscape:vp_y="0 : 1000 : 0"
       inkscape:vp_z="566.92914 : 177.16534 : 1"
       inkscape:persp3d-origin="283.46457 : 118.11023 : 1"
       id="perspective53" />
    <linearGradient
       id="linearGradient3774">
      <stop
         style="stop-color:#ffffff;stop-opacity:1;"
         offset="0"
         id="stop3776" />
      <stop
         id="stop3817"
         offset="0.5"
         style="stop-color:#ffffff;stop-opacity:1;" />
      <stop
         style="stop-color:#ffffff;stop-opacity:0;"
         offset="1"
         id="stop3778" />
    </linearGradient>
    <linearGradient
       id="linearGradient3654">
      <stop
         id="stop3656"
         offset="0"
         style="stop-color:#ffffff;stop-opacity:1;" />
      <stop
         style="stop-color:#ffffff;stop-opacity:0.94901961;"
         offset="0.75608706"
         id="stop3658" />
      <stop
         style="stop-color:#ffffff;stop-opacity:0.51754385"
         offset="0.82349861"
         id="stop3660" />
      <stop
         id="stop3662"
         offset="1"
         style="stop-color:#0180ff;stop-opacity:0;" />
    </linearGradient>
    <linearGradient
       id="linearGradient4069">
      <stop
         style="stop-color:#ffffff;stop-opacity:1;"
         offset="0"
         id="stop4071" />
      <stop
         id="stop4073"
         offset="0.3647764"
         style="stop-color:#ffffff;stop-opacity:1;" />
      <stop
         style="stop-color:#002850;stop-opacity:0;"
         offset="1"
         id="stop4075" />
    </linearGradient>
    <linearGradient
       id="linearGradient4005">
      <stop
         id="stop4007"
         offset="0"
         style="stop-color:#ffffff;stop-opacity:1;" />
      <stop
         style="stop-color:#ffffff;stop-opacity:1;"
         offset="0.17777778"
         id="stop4015" />
      <stop
         id="stop4011"
         offset="1"
         style="stop-color:#839527;stop-opacity:0;" />
    </linearGradient>
    <linearGradient
       id="linearGradient3981">
      <stop
         id="stop3983"
         offset="0"
         style="stop-color:#ffffff;stop-opacity:0;" />
      <stop
         style="stop-color:#ffffff;stop-opacity:0;"
         offset="0.88313347"
         id="stop3989" />
      <stop
         id="stop3985"
         offset="1"
         style="stop-color:#ffffff;stop-opacity:1;" />
    </linearGradient>
    <linearGradient
       id="linearGradient3970">
      <stop
         style="stop-color:#000000;stop-opacity:0;"
         offset="0"
         id="stop3972" />
      <stop
         style="stop-color:#857123;stop-opacity:1;"
         offset="1"
         id="stop3974" />
    </linearGradient>
    <radialGradient
       inkscape:collect="always"
       xlink:href="#linearGradient4069"
       id="radialGradient4089"
       gradientUnits="userSpaceOnUse"
       gradientTransform="matrix(0.66665984,4.0067973e-8,-4.0067973e-8,0.66665983,94.490132,59.056312)"
       cx="283.46457"
       cy="177.16533"
       fx="283.46457"
       fy="177.16533"
       r="106.29921" />
    <radialGradient
       inkscape:collect="always"
       xlink:href="#linearGradient3654"
       id="radialGradient4120"
       gradientUnits="userSpaceOnUse"
       gradientTransform="matrix(1.25,2.5317342e-6,-5.0897583e-7,0.24999748,-70.866004,172.65168)"
       cx="283.46454"
       cy="230.65254"
       fx="283.46454"
       fy="230.65254"
       r="283.46457" />
    <radialGradient
       inkscape:collect="always"
       xlink:href="#linearGradient3774"
       id="radialGradient3780"
       cx="283.46457"
       cy="177.16533"
       fx="283.46457"
       fy="177.16533"
       r="62.007874"
       gradientUnits="userSpaceOnUse" />
    <filter
       inkscape:collect="always"
       id="filter2883"
       color-interpolation-filters="sRGB">
      <feBlend
         inkscape:collect="always"
         mode="screen"
         in2="BackgroundImage"
         id="feBlend2885" />
    </filter>
    <linearGradient
       inkscape:collect="always"
       xlink:href="#linearGradient3970"
       id="linearGradient5127"
       gradientUnits="userSpaceOnUse"
       x1="283.46457"
       y1="1052.3617"
       x2="283.46457"
       y2="875.19629"
       gradientTransform="translate(0,-698.03096)" />
    <radialGradient
       inkscape:collect="always"
       xlink:href="#linearGradient4005"
       id="radialGradient5134"
       gradientUnits="userSpaceOnUse"
       gradientTransform="matrix(0.87499996,-8.2819446e-8,4.2687527e-8,0.37500002,-49.837622,-131.06581)"
       cx="380.91678"
       cy="821.94977"
       fx="380.91678"
       fy="821.94977"
       r="283.46457" />
    <radialGradient
       inkscape:collect="always"
       xlink:href="#linearGradient3981"
       id="radialGradient5137"
       gradientUnits="userSpaceOnUse"
       gradientTransform="matrix(2.2105754,0,0,0.62500002,-343.17882,-425.13597)"
       cx="283.47522"
       cy="1247.1466"
       fx="283.47522"
       fy="1247.1466"
       r="283.46457" />
    <inkscape:perspective
       id="perspective2826"
       inkscape:persp3d-origin="0.5 : 0.33333333 : 1"
       inkscape:vp_z="1 : 0.5 : 1"
       inkscape:vp_y="0 : 1000 : 0"
       inkscape:vp_x="0 : 0.5 : 1"
       sodipodi:type="inkscape:persp3d" />
    <inkscape:perspective
       id="perspective2838"
       inkscape:persp3d-origin="0.5 : 0.33333333 : 1"
       inkscape:vp_z="1 : 0.5 : 1"
       inkscape:vp_y="0 : 1000 : 0"
       inkscape:vp_x="0 : 0.5 : 1"
       sodipodi:type="inkscape:persp3d" />
  </defs>
  <sodipodi:namedview
     id="base"
     pagecolor="#000000"
     bordercolor="#666666"
     borderopacity="1.0"
     inkscape:pageopacity="0"
     inkscape:pageshadow="2"
     inkscape:zoom="1.5026963"
     inkscape:cx="283.46457"
     inkscape:cy="125.25486"
     inkscape:document-units="px"
     inkscape:current-layer="layer1"
     showgrid="false"
     inkscape:window-width="1280"
     inkscape:window-height="725"
     inkscape:window-x="0"
     inkscape:window-y="25"
     inkscape:window-maximized="1"
     units="cm"
     inkscape:showpageshadow="false">
    <inkscape:grid
       type="xygrid"
       id="grid2837"
       empspacing="4"
       visible="true"
       enabled="true"
       snapvisiblegridlinesonly="true"
       spacingx="0.25cm"
       spacingy="0.25cm"
       units="cm"
       color="#0000ff"
       opacity="0.0627451"
       empcolor="#0000ff"
       empopacity="0.10588235" />
  </sodipodi:namedview>
  <metadata
     id="metadata7">
    <rdf:RDF>
      <cc:Work
         rdf:about="">
        <dc:format>image/svg+xml</dc:format>
        <dc:type
           rdf:resource="http://purl.org/dc/dcmitype/StillImage" />
        <dc:title />
      </cc:Work>
    </rdf:RDF>
  </metadata>
  <g
     inkscape:groupmode="layer"
     id="layer5"
     inkscape:label="black for preview"
     style="display:inline">
    <rect
       style="fill:#000000;fill-opacity:1;stroke:none"
       id="rect3769"
       width="566.92914"
       height="354.33072"
       x="0"
       y="-2.0184854e-05" />
  </g>
  <g
     inkscape:groupmode="layer"
     id="layer6"
     inkscape:label="space glow"
     style="display:inline"
     transform="translate(0,-7.2558594e-4)">
    <rect
       style="fill:url(#radialGradient4120);fill-opacity:1;stroke:none;display:inline"
       id="space_glow"
       width="566.92914"
       height="70.866119"
       x="0"
       y="141.73228"
       inkscape:export-filename="/mydata/Projects/plymouth/themes/space-sunrise/space_glow.png"
       inkscape:export-xdpi="266.70001"
       inkscape:export-ydpi="266.70001"
       inkscape:label="#rect3645" />
  </g>
  <g
     inkscape:groupmode="layer"
     id="layer8"
     inkscape:label="sun glow"
     style="display:inline;filter:url(#filter2883)"
     transform="translate(0,-7.2558594e-4)">
    <rect
       style="fill:url(#radialGradient4089);fill-opacity:1;stroke:none;display:inline"
       id="sun_glow"
       width="141.73082"
       height="141.73083"
       x="212.59915"
       y="106.29992"
       inkscape:export-filename="/mydata/Projects/plymouth/themes/space-sunrise/sun_glow.png"
       inkscape:export-xdpi="266.70001"
       inkscape:export-ydpi="266.70001"
       inkscape:label="#rect4033" />
  </g>
  <g
     inkscape:groupmode="layer"
     id="layer4"
     inkscape:label="planet black"
     style="display:inline"
     transform="translate(0,-7.2558594e-4)">
    <path
       transform="translate(0,-698.03096)"
       style="fill:#000000;fill-opacity:1;stroke:none;display:inline"
       d="m 0,1052.3616 566.92913,0 0,-141.73223 C 391.02284,863.14551 178.41593,863.10739 0,910.62937 l 0,141.73223 z"
       id="planet_black"
       sodipodi:nodetypes="ccccc"
       inkscape:export-filename="/mydata/Projects/plymouth/themes/space-sunrise/planet_black.png"
       inkscape:export-xdpi="266.70001"
       inkscape:export-ydpi="266.70001"
       inkscape:label="#path2839" />
  </g>
  <g
     inkscape:groupmode="layer"
     id="layer2"
     inkscape:label="planet glow"
     style="display:inline"
     transform="translate(0,-7.2558594e-4)">
    <g
       id="planet_glow"
       inkscape:label="#g5147">
      <path
         inkscape:label="#path3967"
         style="fill:url(#linearGradient5127);fill-opacity:1;stroke:none;display:inline"
         d="m 0,354.33064 566.92913,0 0,-139.73223 C 391.02284,167.11455 178.41593,167.07643 0,214.59841 l 0,139.73223 z"
         id="path3967"
         sodipodi:nodetypes="ccccc"
         inkscape:export-filename="/mydata/Projects/plymouth/themes/space-sunrise/planet.png"
         inkscape:export-xdpi="266.70001"
         inkscape:export-ydpi="266.70001" />
      <path
         inkscape:export-ydpi="266.70001"
         inkscape:export-xdpi="266.70001"
         inkscape:export-filename="/mydata/Projects/plymouth/themes/2010/glare_planet.png"
         sodipodi:nodetypes="ccccc"
         id="path3978"
         d="m 3.8582677e-6,230.31494 566.9291261417322,0 0,-17.71653 C 391.02284,165.11455 178.41593,165.07643 0,212.59841 l 3.8582677e-6,17.71653 z"
         style="fill:url(#radialGradient5137);fill-opacity:1;stroke:none;display:inline" />
      <path
         style="fill:url(#radialGradient5134);fill-opacity:1;stroke:none;display:inline"
         d="m 1.5433071e-5,318.89764 566.929114566929,0 0,-106.29923 C 391.02284,165.11455 178.41593,165.07643 0,212.59841 l 1.5433071e-5,106.29923 z"
         id="path3993"
         sodipodi:nodetypes="ccccc"
         inkscape:export-filename="/mydata/Projects/plymouth/themes/2010/glare_planet.png"
         inkscape:export-xdpi="266.70001"
         inkscape:export-ydpi="266.70001" />
    </g>
  </g>
  <g
     inkscape:groupmode="layer"
     id="layer1"
     inkscape:label="distro_logo"
     style="opacity:0.7;display:inline">
    <g
       id="distro_logo"
       transform="matrix(-0.77996566,0,0,-0.77996566,504.0583,314.41194)"
       inkscape:label="#g5192">
      <g
         transform="matrix(3.6472543,0,0,3.2793915,2504.4231,-2111.3161)"
         id="flowRoot3714-6-5-9-0-8-45-8"
         style="font-size:40px;font-style:normal;font-weight:normal;fill:#000000;fill-opacity:1;stroke:none;font-family:Bitstream Vera Sans">
        <path
           d="m -606.05859,689.40512 c -0.84637,2e-5 -1.26955,0.94403 -1.26953,2.83203 l 0,13.39844 c 1.23696,0 2.47394,-0.67708 3.71093,-2.03125 1.10675,-1.21093 1.66014,-3.26822 1.66016,-6.17187 -2e-5,-2.70832 -0.55992,-4.79165 -1.67969,-6.25 -0.91147,-1.18488 -1.71877,-1.77733 -2.42187,-1.77735 m 0,-3.0664 c 1.82289,2e-5 3.56117,0.85939 5.21484,2.57812 1.78383,1.83596 2.67576,4.6745 2.67578,8.51563 -2e-5,3.52865 -0.89195,6.34115 -2.67578,8.4375 -1.67971,1.97916 -3.84116,2.96875 -6.48437,2.96875 l 0,7.85156 -3.57422,0 0,-7.83203 c -2.59116,0 -4.75912,-0.9961 -6.50391,-2.98828 -1.77084,-2.03125 -2.65625,-4.83724 -2.65625,-8.41797 0,-3.72395 0.88541,-6.53644 2.65625,-8.4375 1.32812,-1.41925 3.07291,-2.31118 5.23438,-2.67578 l 0,3.18359 c -0.85939,0.2995 -1.66668,0.95705 -2.42188,1.97266 -1.1198,1.49741 -1.67969,3.48308 -1.67969,5.95703 0,2.63021 0.55989,4.69401 1.67969,6.1914 1.0026,1.34115 2.23306,2.01173 3.69141,2.01172 l 0,-13.41797 c -2e-5,-3.93227 1.61457,-5.89841 4.84375,-5.89843"
           id="path3414"
           style="fill:#000000;fill-opacity:1" />
      </g>
      <path
         d="m 340.53047,176.65007 a 57.705541,57.705541 0 0 1 -115.41108,0 57.705541,57.705541 0 1 1 115.41108,0 z"
         id="path4228-9-9-7-8-3-9-36"
         style="fill:none;stroke:#000000;stroke-width:11.6134491;stroke-miterlimit:4;stroke-opacity:1;stroke-dasharray:none" />
    </g>
  </g>
  <g
     inkscape:groupmode="layer"
     id="layer3"
     inkscape:label="distro_name"
     style="opacity:0.902">
    <g
       id="distro_name"
       transform="matrix(0.3065017,0,0,0.3065017,176.18897,149.55353)"
       inkscape:label="#layer1-4">
      <g
         transform="translate(-24.986948,327.77146)"
         id="g3767">
        <g
           transform="matrix(4.5943167,0,0,4.130933,3027.3955,-2677.3851)"
           id="flowRoot3714-6-5-9-0-8-8"
           style="font-size:40px;font-style:normal;font-weight:normal;fill:#afab4c;fill-opacity:1;stroke:none;font-family:Bitstream Vera Sans">
          <path
             d="m -606.05859,689.40512 m -2.86606,16.30764 c -1.45835,10e-6 -4.6665,-0.72824 -5.6691,-2.06939 -1.1198,-1.49739 -1.67969,-3.56119 -1.67969,-6.1914 0,-2.47395 0.55989,-4.45962 1.67969,-5.95703 0.7552,-1.01561 1.56249,-1.67316 2.42188,-1.97266 l 0,-3.18359 c -2.16147,0.3646 -3.90626,1.25653 -5.23438,2.67578 -1.77084,1.90106 -2.65625,4.71355 -2.65625,8.4375 0,3.58073 0.88541,6.38672 2.65625,8.41797 1.74479,1.99218 3.91275,2.98828 6.50391,2.98828 l 3.57422,-0.0195 c 2.64321,0 4.80466,-0.98959 6.48437,-2.96875 1.78383,-2.09635 2.67576,-4.90885 2.67578,-8.4375 -2e-5,-3.84113 -0.89195,-6.67967 -2.67578,-8.51563 -1.65367,-1.71873 -3.39195,-2.5781 -5.21484,-2.57812 -1.82289,-2e-5 -0.7031,3.06638 0,3.0664 0.7031,2e-5 1.5104,0.59247 2.42187,1.77735 1.11977,1.45835 1.67967,3.54168 1.67969,6.25 -2e-5,2.90365 -0.55341,4.96094 -1.66016,6.17187 -1.23699,1.35417 -4.0705,2.10845 -5.30746,2.10845 m 2.86606,-19.37407"
             id="path4949"
             style="fill:#afab4c;fill-opacity:1" />
        </g>
        <path
           d="m 303.04577,729.11334 c 0,189.68323 -153.76864,343.45186 -343.451871,343.45186 -189.683229,0 -343.451879,-153.76863 -343.451879,-343.45186 0,-189.68323 153.76865,-343.45187 343.451879,-343.45187 189.683231,0 343.451871,153.76864 343.451871,343.45187 z"
           transform="matrix(0.21164427,0,0,0.21164427,237.47881,50.371958)"
           id="path4228-9-9-7-8-3-1"
           style="fill:none;stroke:#afab4c;stroke-width:69.12093352999998785;stroke-miterlimit:4;stroke-opacity:1" />
        <g
           transform="matrix(0,-4.5943167,-4.130933,0,3403.1165,-2593.7837)"
           id="flowRoot3714-6-5-9-0-8-6"
           style="font-size:40px;font-style:normal;font-weight:normal;fill:#afab4c;fill-opacity:1;stroke:none;font-family:Bitstream Vera Sans">
          <path
             d="m -606.05859,689.40512 c -0.84637,2e-5 -1.26955,0.94403 -1.26953,2.83203 l 0,13.39844 c 1.23696,0 2.47394,-0.67708 3.71093,-2.03125 1.10675,-1.21093 1.66014,-3.26822 1.66016,-6.17187 -2e-5,-2.70832 -0.55992,-4.79165 -1.67969,-6.25 -0.91147,-1.18488 -1.71877,-1.77733 -2.42187,-1.77735 m 0,-3.0664 c 1.82289,2e-5 3.56117,0.85939 5.21484,2.57812 1.78383,1.83596 2.67576,4.6745 2.67578,8.51563 -2e-5,3.52865 -0.89195,6.34115 -2.67578,8.4375 -1.67971,1.97916 -3.84116,2.96875 -6.48437,2.96875 l 0,7.85156 -3.57422,0 0,-7.83203 c -2.59116,0 -4.75912,-0.9961 -6.50391,-2.98828 -1.77084,-2.03125 -2.65625,-4.83724 -2.65625,-8.41797 0,-3.72395 0.88541,-6.53644 2.65625,-8.4375 1.32812,-1.41925 3.07291,-2.31118 5.23438,-2.67578 l 0,3.18359 c -0.85939,0.2995 -1.66668,0.95705 -2.42188,1.97266 -1.1198,1.49741 -1.67969,3.48308 -1.67969,5.95703 0,2.63021 0.55989,4.69401 1.67969,6.1914 1.0026,1.34115 2.23306,2.01173 3.69141,2.01172 l 0,-13.41797 c -2e-5,-3.93227 1.61457,-5.89841 4.84375,-5.89843"
             id="path3466"
             style="fill:#afab4c" />
        </g>
        <path
           d="m 303.04577,729.11334 c 0,189.68323 -153.76864,343.45186 -343.451871,343.45186 -189.683229,0 -343.451879,-153.76863 -343.451879,-343.45186 0,-189.68323 153.76865,-343.45187 343.451879,-343.45187 189.683231,0 343.451871,153.76864 343.451871,343.45187 z"
           transform="matrix(0,-0.21164427,-0.21164427,0,675.35951,196.1329)"
           id="path4228-9-9-7-8-3-8"
           style="fill:none;stroke:#afab4c;stroke-width:69.12093352999998785;stroke-miterlimit:4;stroke-opacity:1" />
        <g
           transform="matrix(0,4.5943167,4.130933,0,-2798.5218,3003.153)"
           id="flowRoot3714-6-5-9-0-8-4"
           style="font-size:40px;font-style:normal;font-weight:normal;fill:#afab4c;fill-opacity:1;stroke:none;font-family:Bitstream Vera Sans">
          <path
             d="m -606.05859,689.40512 c -0.84637,2e-5 -1.26955,0.94403 -1.26953,2.83203 l 0,13.39844 c 1.23696,0 2.47394,-0.67708 3.71093,-2.03125 1.10675,-1.21093 1.66014,-3.26822 1.66016,-6.17187 -2e-5,-2.70832 -0.55992,-4.79165 -1.67969,-6.25 -0.91147,-1.18488 -1.71877,-1.77733 -2.42187,-1.77735 m 0,-3.0664 c 1.82289,2e-5 3.56117,0.85939 5.21484,2.57812 1.78383,1.83596 2.67576,4.6745 2.67578,8.51563 -2e-5,3.52865 -0.89195,6.34115 -2.67578,8.4375 -1.67971,1.97916 -3.84116,2.96875 -6.48437,2.96875 l 0,7.85156 -3.57422,0 0,-7.83203 c -2.59116,0 -4.75912,-0.9961 -6.50391,-2.98828 -1.77084,-2.03125 -2.65625,-4.83724 -2.65625,-8.41797 0,-3.72395 0.88541,-6.53644 2.65625,-8.4375 1.32812,-1.41925 3.07291,-2.31118 5.23438,-2.67578 l 0,3.18359 c -0.85939,0.2995 -1.66668,0.95705 -2.42188,1.97266 -1.1198,1.49741 -1.67969,3.48308 -1.67969,5.95703 0,2.63021 0.55989,4.69401 1.67969,6.1914 1.0026,1.34115 2.23306,2.01173 3.69141,2.01172 l 0,-13.41797 c -2e-5,-3.93227 1.61457,-5.89841 4.84375,-5.89843"
             id="path3470"
             style="fill:#afab4c" />
        </g>
        <path
           d="m 303.04577,729.11334 c 0,189.68323 -153.76864,343.45186 -343.451871,343.45186 -189.683229,0 -343.451879,-153.76863 -343.451879,-343.45186 0,-189.68323 153.76865,-343.45187 343.451879,-343.45187 189.683231,0 343.451871,153.76864 343.451871,343.45187 z"
           transform="matrix(0,0.21164427,0.21164427,0,-70.764806,213.23634)"
           id="path4228-9-9-7-8-3-2"
           style="fill:none;stroke:#afab4c;stroke-width:69.12093352999998785;stroke-miterlimit:4;stroke-opacity:1" />
        <g
           transform="matrix(4.5943167,0,0,4.130933,3172.5995,-2677.5729)"
           id="flowRoot3714-6-5-9-0-8-0"
           style="font-size:40px;font-style:normal;font-weight:normal;fill:#afab4c;fill-opacity:1;stroke:none;font-family:Bitstream Vera Sans">
          <path
             d="m -607.11988,706.13668 -0.20823,10.5536 -3.57422,0 0,-7.83203 c 0.1308,-5.71024 0.22132,1.08655 0,-3.20313 l 0,-13.41797 c -2e-5,-3.93227 1.61457,-5.89841 4.84375,-5.89843 m 0,0 c 1.82289,2e-5 3.56117,0.85939 5.21484,2.57812 1.78383,2.06756 2.89592,4.28849 3.6595,7.61344 -4.29157,4.62759 -5.70227,-8.14388 -9.49908,-4.26873"
             id="path5159"
             style="fill:#afab4c;fill-opacity:1" />
        </g>
        <path
           d="m 303.04577,729.11334 c 0,189.68323 -153.76864,343.45186 -343.451871,343.45186 -189.683229,0 -343.451879,-153.76863 -343.451879,-343.45186 0,-189.68323 153.76865,-343.45187 343.451879,-343.45187 189.683231,0 343.451871,153.76864 343.451871,343.45187 z"
           transform="matrix(0.21164427,0,0,0.21164427,382.68288,50.184168)"
           id="path4228-9-9-7-8-3-0"
           style="fill:none;stroke:#afab4c;stroke-width:69.12093352999998785;stroke-miterlimit:4;stroke-opacity:1" />
        <g
           transform="matrix(-4.5943167,0,0,4.130933,-2466.0179,-2681.4113)"
           id="flowRoot3714-6-5-9-0-8-2"
           style="font-size:40px;font-style:normal;font-weight:normal;fill:#afab4c;fill-opacity:1;stroke:none;font-family:Bitstream Vera Sans">
          <path
             d="m -617.37032,702.79419 c -1.77084,-2.03125 -2.06745,-0.14024 -2.06745,-3.72097 0,-3.72395 0.19127,-6.84524 1.96211,-8.7463 1.32812,-1.41925 3.00349,-2.54279 5.65086,-1.44057 l -0.9718,3.02919 c -1.9006,-0.54971 -2.09303,0.0946 -2.84823,1.11021 -1.1198,1.49741 -0.69802,3.26472 -0.69802,5.73867 0,2.63021 -2.14727,2.53238 -1.02747,4.02977"
             id="path5263"
             style="fill:#afab4c;fill-opacity:1" />
        </g>
        <g
           transform="matrix(-4.5943167,0,0,4.130933,-2132.0423,-2677.3851)"
           id="flowRoot3714-6-5-9-0-8-8-0"
           style="font-size:40px;font-style:normal;font-weight:normal;fill:#afab4c;fill-opacity:1;stroke:none;font-family:Bitstream Vera Sans">
          <path
             d="m -617.53204,708.60712 c 2.64321,0 4.80466,-0.98959 6.48437,-2.96875 1.78383,-2.09635 2.67576,-4.90885 2.67578,-8.4375 -2e-5,-3.84113 -0.89195,-6.67967 -2.67578,-8.51563 -1.65367,-1.71873 -3.39195,-2.5781 -5.21484,-2.57812 -1.82289,-2e-5 -0.7031,3.06638 0,3.0664 0.7031,2e-5 1.5104,0.59247 2.42187,1.77735 1.11977,1.45835 1.67967,3.54168 1.67969,6.25 -2e-5,2.90365 -0.55341,4.96094 -1.66016,6.17187 -1.23699,1.35417 -2.95987,2.10845 -4.19683,2.10845 m 17.38894,2.99103 -16.90304,0.1349 m 17.21478,-3.20316 c -1.45835,10e-6 -3.00055,-0.80544 -4.00315,-2.14659 -1.1198,-1.49739 -1.67969,-3.56119 -1.67969,-6.1914 0,-2.47395 0.55989,-4.45962 1.67969,-5.95703 0.7552,-1.01561 1.56249,-1.67316 2.42188,-1.97266 l 0,-3.18359 c -2.16147,0.3646 -3.90626,1.25653 -5.23438,2.67578 -1.77084,1.90106 -2.65625,4.71355 -2.65625,8.4375 0,3.58073 0.88541,6.38672 2.65625,8.41797 1.74479,1.99218 3.91275,2.98828 6.50391,2.98828"
             id="path4949-1"
             style="fill:#afab4c;fill-opacity:1" />
        </g>
        <path
           d="m 303.04577,729.11334 c 0,189.68323 -153.76864,343.45186 -343.451871,343.45186 -189.683229,0 -343.451879,-153.76863 -343.451879,-343.45186 0,-189.68323 153.76865,-343.45187 343.451879,-343.45187 189.683231,0 343.451871,153.76864 343.451871,343.45187 z"
           transform="matrix(-0.21164427,0,0,0.21164427,657.87432,50.371961)"
           id="path4228-9-9-7-8-3-1-0"
           style="fill:none;stroke:#afab4c;stroke-width:69.12093352999998785;stroke-miterlimit:4;stroke-opacity:1" />
      </g>
    </g>
  </g>
</svg>
