<?xml version="1.0" encoding="UTF-8" standalone="no"?>
<!-- Created with Inkscape (http://www.inkscape.org/) -->

<svg
   xmlns:svg="http://www.w3.org/2000/svg"
   xmlns="http://www.w3.org/2000/svg"
   version="1.1"
   width="742.88647"
   height="305.14581"
   id="svg10603">
  <defs
     id="defs10605" />
  <g
     transform="translate(21.443238,-379.78951)"
     id="layer1">
    <g
       id="g10668">
      <g
         transform="translate(-24.986948,255.29683)"
         id="g3767">
        <g
           transform="matrix(4.5943167,0,0,4.130933,3027.3955,-2677.3851)"
           id="flowRoot3714-6-5-9-0-8-8"
           style="font-size:40px;font-style:normal;font-weight:normal;fill:#afab4c;fill-opacity:1;stroke:none;font-family:Bitstream Vera Sans">
          <path
             d="m -606.05859,689.40512 m -2.86606,16.30764 c -1.45835,10e-6 -4.6665,-0.72824 -5.6691,-2.06939 -1.1198,-1.49739 -1.67969,-3.56119 -1.67969,-6.1914 0,-2.47395 0.55989,-4.45962 1.67969,-5.95703 0.7552,-1.01561 1.56249,-1.67316 2.42188,-1.97266 l 0,-3.18359 c -2.16147,0.3646 -3.90626,1.25653 -5.23438,2.67578 -1.77084,1.90106 -2.65625,4.71355 -2.65625,8.4375 0,3.58073 0.88541,6.38672 2.65625,8.41797 1.74479,1.99218 3.91275,2.98828 6.50391,2.98828 l 3.57422,-0.0195 c 2.64321,0 4.80466,-0.98959 6.48437,-2.96875 1.78383,-2.09635 2.67576,-4.90885 2.67578,-8.4375 -2e-5,-3.84113 -0.89195,-6.67967 -2.67578,-8.51563 -1.65367,-1.71873 -3.39195,-2.5781 -5.21484,-2.57812 -1.82289,-2e-5 -0.7031,3.06638 0,3.0664 0.7031,2e-5 1.5104,0.59247 2.42187,1.77735 1.11977,1.45835 1.67967,3.54168 1.67969,6.25 -2e-5,2.90365 -0.55341,4.96094 -1.66016,6.17187 -1.23699,1.35417 -4.0705,2.10845 -5.30746,2.10845 m 2.86606,-19.37407"
             id="path4949"
             style="fill:#afab4c;fill-opacity:1" />
        </g>
        <path
           d="m 303.04577,729.11334 c 0,189.68323 -153.76864,343.45186 -343.451871,343.45186 -189.683229,0 -343.451879,-153.76863 -343.451879,-343.45186 0,-189.68323 153.76865,-343.45187 343.451879,-343.45187 189.683231,0 343.451871,153.76864 343.451871,343.45187 z"
           transform="matrix(0.21164427,0,0,0.21164427,237.47881,50.371958)"
           id="path4228-9-9-7-8-3-1"
           style="fill:none;stroke:#afab4c;stroke-width:69.12093353;stroke-miterlimit:4;stroke-opacity:1" />
        <g
           transform="matrix(0,-4.5943167,-4.130933,0,3403.1165,-2593.7837)"
           id="flowRoot3714-6-5-9-0-8-6"
           style="font-size:40px;font-style:normal;font-weight:normal;fill:#afab4c;fill-opacity:1;stroke:none;font-family:Bitstream Vera Sans">
          <path
             d="m -606.05859,689.40512 c -0.84637,2e-5 -1.26955,0.94403 -1.26953,2.83203 l 0,13.39844 c 1.23696,0 2.47394,-0.67708 3.71093,-2.03125 1.10675,-1.21093 1.66014,-3.26822 1.66016,-6.17187 -2e-5,-2.70832 -0.55992,-4.79165 -1.67969,-6.25 -0.91147,-1.18488 -1.71877,-1.77733 -2.42187,-1.77735 m 0,-3.0664 c 1.82289,2e-5 3.56117,0.85939 5.21484,2.57812 1.78383,1.83596 2.67576,4.6745 2.67578,8.51563 -2e-5,3.52865 -0.89195,6.34115 -2.67578,8.4375 -1.67971,1.97916 -3.84116,2.96875 -6.48437,2.96875 l 0,7.85156 -3.57422,0 0,-7.83203 c -2.59116,0 -4.75912,-0.9961 -6.50391,-2.98828 -1.77084,-2.03125 -2.65625,-4.83724 -2.65625,-8.41797 0,-3.72395 0.88541,-6.53644 2.65625,-8.4375 1.32812,-1.41925 3.07291,-2.31118 5.23438,-2.67578 l 0,3.18359 c -0.85939,0.2995 -1.66668,0.95705 -2.42188,1.97266 -1.1198,1.49741 -1.67969,3.48308 -1.67969,5.95703 0,2.63021 0.55989,4.69401 1.67969,6.1914 1.0026,1.34115 2.23306,2.01173 3.69141,2.01172 l 0,-13.41797 c -2e-5,-3.93227 1.61457,-5.89841 4.84375,-5.89843"
             id="path3466"
             style="fill:#afab4c" />
        </g>
        <path
           d="m 303.04577,729.11334 c 0,189.68323 -153.76864,343.45186 -343.451871,343.45186 -189.683229,0 -343.451879,-153.76863 -343.451879,-343.45186 0,-189.68323 153.76865,-343.45187 343.451879,-343.45187 189.683231,0 343.451871,153.76864 343.451871,343.45187 z"
           transform="matrix(0,-0.21164427,-0.21164427,0,675.35951,196.1329)"
           id="path4228-9-9-7-8-3-8"
           style="fill:none;stroke:#afab4c;stroke-width:69.12093353;stroke-miterlimit:4;stroke-opacity:1" />
        <g
           transform="matrix(0,4.5943167,4.130933,0,-2798.5218,3003.153)"
           id="flowRoot3714-6-5-9-0-8-4"
           style="font-size:40px;font-style:normal;font-weight:normal;fill:#afab4c;fill-opacity:1;stroke:none;font-family:Bitstream Vera Sans">
          <path
             d="m -606.05859,689.40512 c -0.84637,2e-5 -1.26955,0.94403 -1.26953,2.83203 l 0,13.39844 c 1.23696,0 2.47394,-0.67708 3.71093,-2.03125 1.10675,-1.21093 1.66014,-3.26822 1.66016,-6.17187 -2e-5,-2.70832 -0.55992,-4.79165 -1.67969,-6.25 -0.91147,-1.18488 -1.71877,-1.77733 -2.42187,-1.77735 m 0,-3.0664 c 1.82289,2e-5 3.56117,0.85939 5.21484,2.57812 1.78383,1.83596 2.67576,4.6745 2.67578,8.51563 -2e-5,3.52865 -0.89195,6.34115 -2.67578,8.4375 -1.67971,1.97916 -3.84116,2.96875 -6.48437,2.96875 l 0,7.85156 -3.57422,0 0,-7.83203 c -2.59116,0 -4.75912,-0.9961 -6.50391,-2.98828 -1.77084,-2.03125 -2.65625,-4.83724 -2.65625,-8.41797 0,-3.72395 0.88541,-6.53644 2.65625,-8.4375 1.32812,-1.41925 3.07291,-2.31118 5.23438,-2.67578 l 0,3.18359 c -0.85939,0.2995 -1.66668,0.95705 -2.42188,1.97266 -1.1198,1.49741 -1.67969,3.48308 -1.67969,5.95703 0,2.63021 0.55989,4.69401 1.67969,6.1914 1.0026,1.34115 2.23306,2.01173 3.69141,2.01172 l 0,-13.41797 c -2e-5,-3.93227 1.61457,-5.89841 4.84375,-5.89843"
             id="path3470"
             style="fill:#afab4c" />
        </g>
        <path
           d="m 303.04577,729.11334 c 0,189.68323 -153.76864,343.45186 -343.451871,343.45186 -189.683229,0 -343.451879,-153.76863 -343.451879,-343.45186 0,-189.68323 153.76865,-343.45187 343.451879,-343.45187 189.683231,0 343.451871,153.76864 343.451871,343.45187 z"
           transform="matrix(0,0.21164427,0.21164427,0,-70.764806,213.23634)"
           id="path4228-9-9-7-8-3-2"
           style="fill:none;stroke:#afab4c;stroke-width:69.12093353;stroke-miterlimit:4;stroke-opacity:1" />
        <g
           transform="matrix(4.5943167,0,0,4.130933,3172.5995,-2677.5729)"
           id="flowRoot3714-6-5-9-0-8-0"
           style="font-size:40px;font-style:normal;font-weight:normal;fill:#afab4c;fill-opacity:1;stroke:none;font-family:Bitstream Vera Sans">
          <path
             d="m -607.11988,706.13668 -0.20823,10.5536 -3.57422,0 0,-7.83203 c 0.1308,-5.71024 0.22132,1.08655 0,-3.20313 l 0,-13.41797 c -2e-5,-3.93227 1.61457,-5.89841 4.84375,-5.89843 m 0,0 c 1.82289,2e-5 3.56117,0.85939 5.21484,2.57812 1.78383,2.06756 2.89592,4.28849 3.6595,7.61344 -4.29157,4.62759 -5.70227,-8.14388 -9.49908,-4.26873"
             id="path5159"
             style="fill:#afab4c;fill-opacity:1" />
        </g>
        <path
           d="m 303.04577,729.11334 c 0,189.68323 -153.76864,343.45186 -343.451871,343.45186 -189.683229,0 -343.451879,-153.76863 -343.451879,-343.45186 0,-189.68323 153.76865,-343.45187 343.451879,-343.45187 189.683231,0 343.451871,153.76864 343.451871,343.45187 z"
           transform="matrix(0.21164427,0,0,0.21164427,382.68288,50.184168)"
           id="path4228-9-9-7-8-3-0"
           style="fill:none;stroke:#afab4c;stroke-width:69.12093353;stroke-miterlimit:4;stroke-opacity:1" />
        <g
           transform="matrix(-4.5943167,0,0,4.130933,-2466.0179,-2681.4113)"
           id="flowRoot3714-6-5-9-0-8-2"
           style="font-size:40px;font-style:normal;font-weight:normal;fill:#afab4c;fill-opacity:1;stroke:none;font-family:Bitstream Vera Sans">
          <path
             d="m -617.37032,702.79419 c -1.77084,-2.03125 -2.06745,-0.14024 -2.06745,-3.72097 0,-3.72395 0.19127,-6.84524 1.96211,-8.7463 1.32812,-1.41925 3.00349,-2.54279 5.65086,-1.44057 l -0.9718,3.02919 c -1.9006,-0.54971 -2.09303,0.0946 -2.84823,1.11021 -1.1198,1.49741 -0.69802,3.26472 -0.69802,5.73867 0,2.63021 -2.14727,2.53238 -1.02747,4.02977"
             id="path5263"
             style="fill:#afab4c;fill-opacity:1" />
        </g>
        <g
           transform="matrix(-4.5943167,0,0,4.130933,-2132.0423,-2677.3851)"
           id="flowRoot3714-6-5-9-0-8-8-0"
           style="font-size:40px;font-style:normal;font-weight:normal;fill:#afab4c;fill-opacity:1;stroke:none;font-family:Bitstream Vera Sans">
          <path
             d="m -617.53204,708.60712 c 2.64321,0 4.80466,-0.98959 6.48437,-2.96875 1.78383,-2.09635 2.67576,-4.90885 2.67578,-8.4375 -2e-5,-3.84113 -0.89195,-6.67967 -2.67578,-8.51563 -1.65367,-1.71873 -3.39195,-2.5781 -5.21484,-2.57812 -1.82289,-2e-5 -0.7031,3.06638 0,3.0664 0.7031,2e-5 1.5104,0.59247 2.42187,1.77735 1.11977,1.45835 1.67967,3.54168 1.67969,6.25 -2e-5,2.90365 -0.55341,4.96094 -1.66016,6.17187 -1.23699,1.35417 -2.95987,2.10845 -4.19683,2.10845 m 17.38894,2.99103 -16.90304,0.1349 m 17.21478,-3.20316 c -1.45835,10e-6 -3.00055,-0.80544 -4.00315,-2.14659 -1.1198,-1.49739 -1.67969,-3.56119 -1.67969,-6.1914 0,-2.47395 0.55989,-4.45962 1.67969,-5.95703 0.7552,-1.01561 1.56249,-1.67316 2.42188,-1.97266 l 0,-3.18359 c -2.16147,0.3646 -3.90626,1.25653 -5.23438,2.67578 -1.77084,1.90106 -2.65625,4.71355 -2.65625,8.4375 0,3.58073 0.88541,6.38672 2.65625,8.41797 1.74479,1.99218 3.91275,2.98828 6.50391,2.98828"
             id="path4949-1"
             style="fill:#afab4c;fill-opacity:1" />
        </g>
        <path
           d="m 303.04577,729.11334 c 0,189.68323 -153.76864,343.45186 -343.451871,343.45186 -189.683229,0 -343.451879,-153.76863 -343.451879,-343.45186 0,-189.68323 153.76865,-343.45187 343.451879,-343.45187 189.683231,0 343.451871,153.76864 343.451871,343.45187 z"
           transform="matrix(-0.21164427,0,0,0.21164427,657.87432,50.371961)"
           id="path4228-9-9-7-8-3-1-0"
           style="fill:none;stroke:#afab4c;stroke-width:69.12093353;stroke-miterlimit:4;stroke-opacity:1" />
      </g>
      <g
         transform="matrix(199.54025,0,0,188.02604,77586.352,-90420.535)"
         id="flowRoot4065-97-4"
         style="font-size:0.88155293px;font-style:oblique;font-variant:normal;font-weight:bold;font-stretch:normal;text-align:start;line-height:125%;writing-mode:lr-tb;text-anchor:start;fill:#afab4c;fill-opacity:1;stroke:#eded8d;stroke-width:0.02322378;stroke-miterlimit:4;stroke-opacity:1;font-family:Purisa;-inkscape-font-specification:Purisa Bold Oblique">
        <path
           d="m -388.34299,484.38214 c 0,0.0118 8.8e-4,0.0188 0.003,0.0212 0.002,0.002 0.008,0.003 0.0168,0.003 0.0182,0 0.0573,-0.006 0.11725,-0.0185 0.0605,-0.0123 0.11754,-0.0244 0.17102,-0.0361 0.0535,-0.0123 0.0814,-0.0185 0.0838,-0.0185 0.009,0 0.017,0.003 0.0247,0.01 0.008,0.006 0.0123,0.0144 0.0123,0.0238 0,0.0118 -0.009,0.0238 -0.0273,0.0361 -0.0235,0.0159 -0.0861,0.0353 -0.18777,0.0582 -0.10167,0.0223 -0.18189,0.0335 -0.24066,0.0335 -0.0247,0 -0.0417,-0.004 -0.0511,-0.0106 -0.009,-0.008 -0.0141,-0.0244 -0.0141,-0.0503 0,-0.0376 0.0132,-0.13252 0.0397,-0.28474 0.027,-0.1528 0.0467,-0.26064 0.0591,-0.32353 0.005,-0.0229 0.0153,-0.0344 0.0317,-0.0344 0.009,0 0.0173,0.005 0.0238,0.0159 0.006,0.01 0.01,0.022 0.01,0.0361 0,0.03 -0.012,0.1199 -0.0361,0.26976 -0.0235,0.14928 -0.0353,0.23919 -0.0353,0.26975"
           id="path3607"
           style="line-height:125%;fill:#afab4c;stroke:#eded8d;font-family:Purisa;-inkscape-font-specification:Purisa Bold Oblique" />
        <path
           d="m -387.64942,483.97222 c 0.0106,0 0.0171,0.003 0.0194,0.01 0.003,0.006 0.004,0.0153 0.004,0.0282 0,0.0464 -0.0106,0.13047 -0.0317,0.25212 -0.0206,0.12166 -0.0358,0.18895 -0.0458,0.20188 -0.0135,0.009 -0.027,0.0141 -0.0405,0.0141 -0.009,0 -0.0162,-10e-4 -0.022,-0.004 -0.005,-0.003 -0.009,-0.006 -0.0106,-0.008 -0.001,-0.003 -0.002,-0.005 -0.002,-0.007 0,-0.0147 0.009,-0.0776 0.0256,-0.18865 0.0176,-0.11108 0.0306,-0.18484 0.0388,-0.22127 0.008,-0.0353 0.0185,-0.0573 0.0326,-0.0661 0.0118,-0.007 0.0223,-0.0106 0.0317,-0.0106 m 8.8e-4,-0.18248 c 0,-0.0147 0.006,-0.0267 0.0176,-0.0361 0.0118,-0.01 0.0223,-0.015 0.0317,-0.015 0.008,0 0.0168,0.004 0.0273,0.0106 0.0106,0.006 0.0159,0.015 0.0159,0.0256 0,0.0112 -0.005,0.0241 -0.015,0.0388 -0.01,0.0147 -0.022,0.022 -0.0361,0.022 -0.0106,0 -0.0203,-0.004 -0.0291,-0.0123 -0.008,-0.009 -0.0124,-0.02 -0.0124,-0.0335"
           id="path3609"
           style="line-height:125%;fill:#afab4c;stroke:#eded8d;font-family:Purisa;-inkscape-font-specification:Purisa Bold Oblique" />
        <path
           d="m -387.10662,483.98633 c 0.0212,0 0.0376,0.0118 0.0494,0.0353 0.0118,0.0229 0.0176,0.0464 0.0176,0.0705 0,0.047 -0.017,0.14722 -0.0511,0.30061 -0.008,0.0388 -0.0164,0.0652 -0.0247,0.0793 -0.008,0.0135 -0.0206,0.0203 -0.037,0.0203 -0.0141,0 -0.0211,-0.006 -0.0211,-0.0185 0,-0.002 0.0103,-0.0503 0.0308,-0.1437 0.0212,-0.094 0.0317,-0.16514 0.0317,-0.21333 0,-0.0106 -0.002,-0.0194 -0.005,-0.0265 -0.004,-0.008 -0.007,-0.0123 -0.01,-0.0141 -0.002,-0.002 -0.004,-0.004 -0.005,-0.004 -0.009,0 -0.0329,0.0197 -0.0705,0.0591 -0.0376,0.0394 -0.0705,0.0796 -0.0987,0.12078 -0.03,0.0435 -0.0505,0.0752 -0.0617,0.0952 -0.0106,0.02 -0.0214,0.047 -0.0326,0.0811 -0.0135,0.04 -0.0229,0.0658 -0.0282,0.0776 -0.005,0.0123 -0.0115,0.0185 -0.0185,0.0185 -0.002,0 -0.005,-8.9e-4 -0.008,-0.003 -0.003,-10e-4 -0.006,-0.004 -0.0106,-0.007 -0.004,-0.004 -0.007,-0.009 -0.01,-0.0159 -0.002,-0.007 -0.004,-0.0153 -0.004,-0.0247 0,-0.0123 0.002,-0.0309 0.005,-0.0555 0.004,-0.0253 0.009,-0.0626 0.0159,-0.11196 0.007,-0.0494 0.0132,-0.10079 0.0185,-0.15427 0.008,-0.0758 0.0141,-0.12195 0.0194,-0.1384 0.008,-0.0241 0.0203,-0.0362 0.0362,-0.0362 0.008,0 0.0129,0.003 0.0159,0.008 0.004,0.005 0.005,0.0141 0.005,0.0282 0,0.0141 -0.004,0.0652 -0.0132,0.15339 l -0.01,0.10049 0.0159,-0.0291 c 0.0206,-0.0376 0.0373,-0.0652 0.0503,-0.0829 0.0129,-0.0176 0.0353,-0.0429 0.067,-0.0758 0.0611,-0.0629 0.10784,-0.0943 0.14016,-0.0943"
           id="path3611"
           style="line-height:125%;fill:#afab4c;stroke:#eded8d;font-family:Purisa;-inkscape-font-specification:Purisa Bold Oblique" />
        <path
           d="m -386.50022,484.45972 c 0,0.0141 -0.003,0.0253 -0.01,0.0335 -0.006,0.009 -0.0118,0.0141 -0.0176,0.0159 -0.005,0.002 -0.0109,0.003 -0.0167,0.003 -0.0153,0 -0.0256,-0.0115 -0.0309,-0.0344 -0.005,-0.0235 -0.009,-0.0508 -0.01,-0.082 -10e-4,-0.0312 -0.004,-0.0508 -0.007,-0.0591 -0.002,0.002 -0.008,0.008 -0.0159,0.0168 -0.008,0.008 -0.0138,0.015 -0.0185,0.0203 -0.0353,0.04 -0.074,0.0746 -0.11636,0.10402 -0.0417,0.0288 -0.0764,0.0432 -0.10403,0.0432 -0.0323,0 -0.0546,-0.007 -0.067,-0.0212 -0.0117,-0.0141 -0.0176,-0.0403 -0.0176,-0.0785 0,-0.0705 0.0109,-0.15603 0.0326,-0.25653 0.0118,-0.0547 0.0229,-0.094 0.0335,-0.11813 0.0106,-0.0241 0.0226,-0.0361 0.0361,-0.0361 0.008,0 0.0156,0.003 0.022,0.01 0.006,0.006 0.01,0.015 0.01,0.0273 0,0.007 -8.8e-4,0.0138 -0.003,0.0203 -0.002,0.006 -0.005,0.0159 -0.009,0.0282 -0.004,0.0118 -0.007,0.0253 -0.01,0.0405 -0.0235,0.1293 -0.0353,0.21951 -0.0353,0.27064 0,0.0164 8.8e-4,0.0279 0.003,0.0344 0.002,0.006 0.007,0.009 0.0132,0.009 0.0118,0 0.0332,-0.0106 0.0643,-0.0317 0.0405,-0.027 0.0838,-0.0699 0.12959,-0.12871 0.0458,-0.0594 0.0817,-0.11901 0.10755,-0.17895 0.0194,-0.0453 0.0347,-0.0749 0.0458,-0.089 0.0112,-0.0141 0.0235,-0.0212 0.037,-0.0212 0.0182,0 0.0273,0.009 0.0273,0.0256 0,0.009 -0.0109,0.0426 -0.0326,0.10137 -0.0212,0.0588 -0.0347,0.10256 -0.0406,0.13136 -0.005,0.0229 -0.008,0.0494 -0.008,0.0793 0,0.0176 0.001,0.0402 0.004,0.0679 0.002,0.0276 0.004,0.0455 0.004,0.0538"
           id="path3613"
           style="line-height:125%;fill:#afab4c;stroke:#eded8d;font-family:Purisa;-inkscape-font-specification:Purisa Bold Oblique" />
        <path
           d="m -385.75513,484.39713 c 0,0.0141 -0.007,0.0244 -0.0211,0.0308 -0.0135,0.006 -0.0253,0.01 -0.0353,0.01 -0.004,0 -0.007,-5.9e-4 -0.0106,-0.002 -0.004,-10e-4 -0.008,-0.003 -0.0124,-0.006 -0.004,-0.003 -0.008,-0.006 -0.0115,-0.009 -0.004,-0.004 -0.009,-0.009 -0.015,-0.015 -0.006,-0.007 -0.0115,-0.0132 -0.0168,-0.0185 -0.005,-0.005 -0.0118,-0.0135 -0.0212,-0.0247 -0.009,-0.0112 -0.0179,-0.0209 -0.0256,-0.0291 l -0.082,-0.0917 -0.0273,0.0264 c -0.0206,0.0235 -0.0408,0.0482 -0.0608,0.074 -0.0194,0.0253 -0.0344,0.0447 -0.045,0.0582 -0.0106,0.0135 -0.0185,0.0223 -0.0238,0.0264 l -0.022,0.0265 c -0.0153,0.0182 -0.0303,0.0323 -0.045,0.0423 -0.0141,0.0106 -0.0288,0.0159 -0.0441,0.0159 -0.009,0 -0.017,-0.002 -0.0247,-0.005 -0.007,-0.004 -0.0106,-0.008 -0.0106,-0.0132 0,-0.0147 0.0382,-0.0696 0.1146,-0.16485 0.077,-0.0958 0.11754,-0.14928 0.12165,-0.16044 l 0,-8.9e-4 c 0.002,-0.0141 -0.0138,-0.0438 -0.0485,-0.089 -0.0341,-0.0453 -0.0691,-0.0914 -0.10491,-0.13841 -0.0353,-0.0476 -0.0529,-0.0799 -0.0529,-0.097 0,-0.002 0,-0.004 0,-0.007 5.9e-4,-0.004 0.004,-0.008 0.01,-0.0123 0.006,-0.005 0.0141,-0.008 0.0247,-0.008 0.0123,0 0.027,0.008 0.0441,0.0238 0.0176,0.0159 0.0435,0.0429 0.0776,0.0811 0.01,0.0112 0.0176,0.0197 0.0229,0.0256 l 0.11195,0.11548 0.0432,-0.045 c 0.037,-0.0382 0.077,-0.0755 0.11989,-0.11196 0.0429,-0.0364 0.072,-0.0546 0.0873,-0.0546 0.0206,0 0.0309,0.005 0.0309,0.0159 0,0.009 -0.007,0.0229 -0.0203,0.0406 -0.0135,0.0176 -0.027,0.0326 -0.0405,0.0449 l -0.0203,0.0194 c -0.0253,0.0194 -0.0555,0.0538 -0.0908,0.10314 l -0.0573,0.0802 0.0273,0.0362 c 0.0141,0.0188 0.0356,0.0438 0.0644,0.0749 0.0288,0.0311 0.0508,0.0573 0.0661,0.0785 0.0159,0.0211 0.0238,0.0391 0.0238,0.0538"
           id="path3615"
           style="line-height:125%;fill:#afab4c;stroke:#eded8d;font-family:Purisa;-inkscape-font-specification:Purisa Bold Oblique" />
      </g>
    </g>
  </g>
</svg>
