<?xml version="1.0" encoding="UTF-8" standalone="no"?>
<!-- Created with Inkscape (http://www.inkscape.org/) -->

<svg
   xmlns:svg="http://www.w3.org/2000/svg"
   xmlns="http://www.w3.org/2000/svg"
   xmlns:xlink="http://www.w3.org/1999/xlink"
   version="1.1"
   width="48"
   height="48"
   id="svg2">
  <defs
     id="defs4">
    <linearGradient
       x1="52.92857"
       y1="60"
       x2="52.92857"
       y2="19.986593"
       id="linearGradient3381"
       xlink:href="#linearGradient3767"
       gradientUnits="userSpaceOnUse"
       gradientTransform="translate(0,2.5000001e-6)" />
    <linearGradient
       id="linearGradient3767">
      <stop
         id="stop3769"
         style="stop-color:#4d4d4d;stop-opacity:0.70731705"
         offset="0" />
      <stop
         id="stop3771"
         style="stop-color:#4d4d4d;stop-opacity:0.25203252"
         offset="1" />
    </linearGradient>
    <clipPath
       id="clipPath3403">
      <path
         d="m -72.6875,6.90625 0,67.5 82.34375,0 0,-67.5 -82.34375,0 z M -32,20 c 13.248,0 24,8.96 24,20 0,11.040001 -10.752,20.000001 -24,20 -13.248,0 -24,-8.959998 -24,-20 0,-11.040001 10.752,-20 24,-20 z m 5.71875,2.25 -2.84375,8.90625 c 1.884334,0.423339 3.565705,1.226629 4.90625,2.34375 L -16.375,27 c -2.867015,-2.389179 -5.989834,-3.875501 -9.90625,-4.75 z M -32,32.5 c -4.967999,0 -8.999999,3.360001 -9,7.5 0,4.139999 4.032001,7.500001 9,7.5 4.967999,0 8.999999,-3.36 9,-7.5 0,-4.139999 -4.032,-7.500001 -9,-7.5 z m 0,2.5 c 3.311999,0 6,2.240001 6,5 -1e-6,2.759999 -2.688,5.000001 -6,5 -3.312,-10e-7 -6,-2.239999 -6,-5 0,-2.76 2.688,-5.000001 6,-5 z m 0,1.65625 c -2.208,0 -3.999999,1.503751 -4,3.34375 0,1.84 1.792,3.343748 4,3.34375 2.208,0 4,-1.50375 4,-3.34375 0,-1.84 -1.792,-3.343751 -4,-3.34375 z M -39.78125,46.5 -47.5625,53 c 2.867015,2.389177 5.989835,3.8755 9.90625,4.75 l 2.84375,-8.90625 C -36.712573,48.426166 -38.398383,47.621706 -39.75,46.5 l -0.03125,0 z"
         id="path3405"
         style="fill:#ffffff;fill-opacity:1;fill-rule:nonzero;stroke:none" />
    </clipPath>
    <filter
       x="-0.1104"
       y="-0.13142857"
       width="1.2208"
       height="1.2628571"
       color-interpolation-filters="sRGB"
       id="filter3407">
      <feGaussianBlur
         stdDeviation="2.3"
         id="feGaussianBlur3409" />
    </filter>
    <linearGradient
       x1="32.251034"
       y1="6.1317081"
       x2="32.251034"
       y2="90.238609"
       id="linearGradient2918"
       xlink:href="#ButtonShadow-0"
       gradientUnits="userSpaceOnUse"
       gradientTransform="matrix(1.0238095,0,0,1.0119048,-1.1428571,-98.071429)" />
    <linearGradient
       x1="45.447727"
       y1="92.539597"
       x2="45.447727"
       y2="7.0165396"
       id="ButtonShadow-0"
       gradientUnits="userSpaceOnUse"
       gradientTransform="matrix(1.0058652,0,0,0.994169,100,0)">
      <stop
         id="stop3750-8"
         style="stop-color:#000000;stop-opacity:1"
         offset="0" />
      <stop
         id="stop3752-5"
         style="stop-color:#000000;stop-opacity:0.58823532"
         offset="1" />
    </linearGradient>
    <linearGradient
       x1="32.251034"
       y1="6.1317081"
       x2="32.251034"
       y2="90.238609"
       id="linearGradient3780"
       xlink:href="#ButtonShadow-0"
       gradientUnits="userSpaceOnUse"
       gradientTransform="matrix(1.0238095,0,0,1.0119048,-1.1428571,-98.071429)" />
    <linearGradient
       x1="45.447727"
       y1="92.539597"
       x2="45.447727"
       y2="7.0165396"
       id="linearGradient9383"
       gradientUnits="userSpaceOnUse"
       gradientTransform="matrix(1.0058652,0,0,0.994169,100,0)">
      <stop
         id="stop9385"
         style="stop-color:#000000;stop-opacity:1"
         offset="0" />
      <stop
         id="stop9387"
         style="stop-color:#000000;stop-opacity:0.58823532"
         offset="1" />
    </linearGradient>
    <linearGradient
       x1="32.251034"
       y1="6.1317081"
       x2="32.251034"
       y2="90.238609"
       id="linearGradient3772"
       xlink:href="#ButtonShadow-0"
       gradientUnits="userSpaceOnUse"
       gradientTransform="matrix(1.0238095,0,0,1.0119048,-1.1428571,-98.071429)" />
    <linearGradient
       x1="45.447727"
       y1="92.539597"
       x2="45.447727"
       y2="7.0165396"
       id="linearGradient9390"
       gradientUnits="userSpaceOnUse"
       gradientTransform="matrix(1.0058652,0,0,0.994169,100,0)">
      <stop
         id="stop9392"
         style="stop-color:#000000;stop-opacity:1"
         offset="0" />
      <stop
         id="stop9394"
         style="stop-color:#000000;stop-opacity:0.58823532"
         offset="1" />
    </linearGradient>
    <linearGradient
       x1="32.251034"
       y1="6.1317081"
       x2="32.251034"
       y2="90.238609"
       id="linearGradient3725"
       xlink:href="#ButtonShadow-0"
       gradientUnits="userSpaceOnUse"
       gradientTransform="matrix(1.0238095,0,0,1.0119048,-1.1428571,-98.071429)" />
    <linearGradient
       x1="45.447727"
       y1="92.539597"
       x2="45.447727"
       y2="7.0165396"
       id="linearGradient9397"
       gradientUnits="userSpaceOnUse"
       gradientTransform="matrix(1.0058652,0,0,0.994169,100,0)">
      <stop
         id="stop9399"
         style="stop-color:#000000;stop-opacity:1"
         offset="0" />
      <stop
         id="stop9401"
         style="stop-color:#000000;stop-opacity:0.58823532"
         offset="1" />
    </linearGradient>
    <linearGradient
       x1="32.251034"
       y1="6.1317081"
       x2="32.251034"
       y2="90.238609"
       id="linearGradient3721"
       xlink:href="#ButtonShadow-0"
       gradientUnits="userSpaceOnUse"
       gradientTransform="translate(0,-97)" />
    <linearGradient
       x1="45.447727"
       y1="92.539597"
       x2="45.447727"
       y2="7.0165396"
       id="linearGradient9404"
       gradientUnits="userSpaceOnUse"
       gradientTransform="matrix(1.0058652,0,0,0.994169,100,0)">
      <stop
         id="stop9406"
         style="stop-color:#000000;stop-opacity:1"
         offset="0" />
      <stop
         id="stop9408"
         style="stop-color:#000000;stop-opacity:0.58823532"
         offset="1" />
    </linearGradient>
    <linearGradient
       x1="36.357143"
       y1="6"
       x2="36.357143"
       y2="63.893143"
       id="linearGradient3188"
       xlink:href="#linearGradient3737"
       gradientUnits="userSpaceOnUse" />
    <linearGradient
       id="linearGradient3737">
      <stop
         id="stop3739"
         style="stop-color:#ffffff;stop-opacity:1"
         offset="0" />
      <stop
         id="stop3741"
         style="stop-color:#ffffff;stop-opacity:0"
         offset="1" />
    </linearGradient>
    <linearGradient
       x1="6"
       y1="77.09375"
       x2="32.030617"
       y2="77.09375"
       id="linearGradient3287"
       xlink:href="#linearGradient3273"
       gradientUnits="userSpaceOnUse"
       gradientTransform="matrix(-1,0,0,1,96.030615,0)" />
    <linearGradient
       id="linearGradient3273">
      <stop
         id="stop3275"
         style="stop-color:#7a7a7a;stop-opacity:1"
         offset="0" />
      <stop
         id="stop3281"
         style="stop-color:#f9f9f9;stop-opacity:1"
         offset="0.14636412" />
      <stop
         id="stop3283"
         style="stop-color:#c9c9c9;stop-opacity:1"
         offset="0.37253973" />
      <stop
         id="stop3277"
         style="stop-color:#dedede;stop-opacity:0"
         offset="1" />
    </linearGradient>
    <linearGradient
       x1="6"
       y1="77.09375"
       x2="32"
       y2="77.09375"
       id="linearGradient3279"
       xlink:href="#linearGradient3322"
       gradientUnits="userSpaceOnUse" />
    <linearGradient
       id="linearGradient3322">
      <stop
         id="stop3324"
         style="stop-color:#7a7a7a;stop-opacity:1"
         offset="0" />
      <stop
         id="stop3326"
         style="stop-color:#f9f9f9;stop-opacity:1"
         offset="0.2032043" />
      <stop
         id="stop3328"
         style="stop-color:#c9c9c9;stop-opacity:1"
         offset="0.42969123" />
      <stop
         id="stop3330"
         style="stop-color:#dedede;stop-opacity:0"
         offset="1" />
    </linearGradient>
    <linearGradient
       x1="48"
       y1="77.09375"
       x2="48"
       y2="90"
       id="linearGradient3460"
       xlink:href="#linearGradient3448"
       gradientUnits="userSpaceOnUse" />
    <linearGradient
       id="linearGradient3448">
      <stop
         id="stop3450"
         style="stop-color:#000000;stop-opacity:1"
         offset="0" />
      <stop
         id="stop3452"
         style="stop-color:#000000;stop-opacity:0"
         offset="1" />
    </linearGradient>
    <linearGradient
       x1="43.05357"
       y1="80.14286"
       x2="43.05357"
       y2="82.00309"
       id="linearGradient4196"
       xlink:href="#linearGradient3448"
       gradientUnits="userSpaceOnUse" />
    <linearGradient
       id="linearGradient9431">
      <stop
         id="stop9433"
         style="stop-color:#000000;stop-opacity:1"
         offset="0" />
      <stop
         id="stop9435"
         style="stop-color:#000000;stop-opacity:0"
         offset="1" />
    </linearGradient>
    <linearGradient
       x1="46"
       y1="6"
       x2="46"
       y2="78.000145"
       id="linearGradient3179"
       xlink:href="#linearGradient4327"
       gradientUnits="userSpaceOnUse" />
    <linearGradient
       id="linearGradient4327">
      <stop
         id="stop4329"
         style="stop-color:#f0f0f0;stop-opacity:1"
         offset="0" />
      <stop
         id="stop4331"
         style="stop-color:#b4b4b4;stop-opacity:1"
         offset="1" />
    </linearGradient>
    <linearGradient
       x1="18.742928"
       y1="8.046936"
       x2="109.1929"
       y2="68.516502"
       id="linearGradient3551"
       xlink:href="#linearGradient3220"
       gradientUnits="userSpaceOnUse"
       gradientTransform="matrix(1,0,0,-1,0,84)" />
    <linearGradient
       id="linearGradient3220">
      <stop
         id="stop3222"
         style="stop-color:#ffffff;stop-opacity:1"
         offset="0" />
      <stop
         id="stop3224"
         style="stop-color:#bfbfbf;stop-opacity:0"
         offset="1" />
    </linearGradient>
    <linearGradient
       x1="6"
       y1="75.5"
       x2="45.219246"
       y2="75.5"
       id="linearGradient3454"
       xlink:href="#linearGradient3448"
       gradientUnits="userSpaceOnUse"
       gradientTransform="matrix(-1,0,0,1,96,-2)" />
    <linearGradient
       id="linearGradient9446">
      <stop
         id="stop9448"
         style="stop-color:#000000;stop-opacity:1"
         offset="0" />
      <stop
         id="stop9450"
         style="stop-color:#000000;stop-opacity:0"
         offset="1" />
    </linearGradient>
    <linearGradient
       x1="15.656256"
       y1="69.394279"
       x2="46.594883"
       y2="39.82095"
       id="linearGradient3781"
       xlink:href="#linearGradient3220"
       gradientUnits="userSpaceOnUse"
       gradientTransform="matrix(1.1165614,0,0,1.1165614,0.8046986,-5.6759082)" />
    <linearGradient
       id="linearGradient9453">
      <stop
         id="stop9455"
         style="stop-color:#ffffff;stop-opacity:1"
         offset="0" />
      <stop
         id="stop9457"
         style="stop-color:#bfbfbf;stop-opacity:0"
         offset="1" />
    </linearGradient>
    <clipPath
       id="clipPath3785">
      <rect
         width="84"
         height="72"
         rx="6"
         ry="6"
         x="6"
         y="6"
         id="rect3787"
         style="fill:#ffffff;fill-opacity:1;fill-rule:nonzero;stroke:none" />
    </clipPath>
    <filter
       x="-0.12267826"
       y="-0.17991199"
       width="1.2453564"
       height="1.3598239"
       color-interpolation-filters="sRGB"
       id="filter3829">
      <feGaussianBlur
         stdDeviation="3.5487715"
         id="feGaussianBlur3831" />
    </filter>
    <filter
       x="-0.11444673"
       y="-1.4149175"
       width="1.2288935"
       height="3.8298349"
       color-interpolation-filters="sRGB"
       id="filter4180">
      <feGaussianBlur
         stdDeviation="3.5372897"
         id="feGaussianBlur4182" />
    </filter>
    <radialGradient
       cx="48"
       cy="84"
       r="30"
       fx="48"
       fy="84"
       id="radialGradient4138"
       xlink:href="#linearGradient3313"
       gradientUnits="userSpaceOnUse"
       gradientTransform="matrix(1.0666667,0,0,0.06666667,-3.2,77.4)" />
    <linearGradient
       id="linearGradient3313">
      <stop
         id="stop3315"
         style="stop-color:#4dbeff;stop-opacity:1"
         offset="0" />
      <stop
         id="stop4186"
         style="stop-color:#1379ff;stop-opacity:0.65040648"
         offset="0.67213112" />
      <stop
         id="stop3317"
         style="stop-color:#0066ff;stop-opacity:0"
         offset="1" />
    </linearGradient>
    <linearGradient
       id="linearGradient3737-1">
      <stop
         id="stop3739-4"
         style="stop-color:#ffffff;stop-opacity:1"
         offset="0" />
      <stop
         id="stop3741-91"
         style="stop-color:#ffffff;stop-opacity:0"
         offset="1" />
    </linearGradient>
    <linearGradient
       id="linearGradient3687">
      <stop
         id="stop3689"
         style="stop-color:#ffffff;stop-opacity:1"
         offset="0" />
      <stop
         id="stop3691"
         style="stop-color:#ffffff;stop-opacity:0"
         offset="1" />
    </linearGradient>
    <linearGradient
       id="linearGradient16961">
      <stop
         id="stop16963"
         style="stop-color:#ffffff;stop-opacity:1"
         offset="0" />
      <stop
         id="stop16965"
         style="stop-color:#ffffff;stop-opacity:0"
         offset="1" />
    </linearGradient>
    <linearGradient
       id="linearGradient3737-4">
      <stop
         id="stop3739-5"
         style="stop-color:#ffffff;stop-opacity:1"
         offset="0" />
      <stop
         id="stop3741-2"
         style="stop-color:#ffffff;stop-opacity:0"
         offset="1" />
    </linearGradient>
    <linearGradient
       id="linearGradient3175-4">
      <stop
         id="stop3177-5"
         style="stop-color:#55a6eb;stop-opacity:1"
         offset="0" />
      <stop
         id="stop3179-1"
         style="stop-color:#1754c4;stop-opacity:1"
         offset="1" />
    </linearGradient>
    <linearGradient
       id="linearGradient3737-5">
      <stop
         id="stop3739-6"
         style="stop-color:#ffffff;stop-opacity:1"
         offset="0" />
      <stop
         id="stop3741-9"
         style="stop-color:#ffffff;stop-opacity:0"
         offset="1" />
    </linearGradient>
    <linearGradient
       id="linearGradient3700-8">
      <stop
         id="stop3702-5"
         style="stop-color:#000000;stop-opacity:1"
         offset="0" />
      <stop
         id="stop3704-6"
         style="stop-color:#1f1f1f;stop-opacity:1"
         offset="1" />
    </linearGradient>
    <linearGradient
       x1="43.30954"
       y1="91.125015"
       x2="43.30954"
       y2="82.822479"
       id="linearGradient3831"
       xlink:href="#linearGradient3734"
       gradientUnits="userSpaceOnUse" />
    <linearGradient
       id="linearGradient3734">
      <stop
         id="stop3736"
         style="stop-color:#bfbfbf;stop-opacity:1"
         offset="0" />
      <stop
         id="stop3738"
         style="stop-color:#9a9a9a;stop-opacity:1"
         offset="1" />
    </linearGradient>
    <linearGradient
       x1="48"
       y1="86.071426"
       x2="48"
       y2="72.303963"
       id="linearGradient3769"
       xlink:href="#linearGradient3771"
       gradientUnits="userSpaceOnUse"
       gradientTransform="translate(0,1)" />
    <linearGradient
       id="linearGradient3771">
      <stop
         id="stop3773"
         style="stop-color:#ababab;stop-opacity:0"
         offset="0" />
      <stop
         id="stop3779"
         style="stop-color:#e6e6e6;stop-opacity:1"
         offset="0.15620089" />
      <stop
         id="stop3777"
         style="stop-color:#aaaaaa;stop-opacity:1"
         offset="1" />
    </linearGradient>
    <linearGradient
       x1="37"
       y1="72.089287"
       x2="37"
       y2="84"
       id="linearGradient3797"
       xlink:href="#linearGradient3803"
       gradientUnits="userSpaceOnUse"
       gradientTransform="translate(0,1)" />
    <linearGradient
       id="linearGradient3803">
      <stop
         id="stop3805"
         style="stop-color:#000000;stop-opacity:1"
         offset="0" />
      <stop
         id="stop3807"
         style="stop-color:#000000;stop-opacity:0"
         offset="1" />
    </linearGradient>
    <linearGradient
       x1="60"
       y1="70"
       x2="60"
       y2="84.028442"
       id="linearGradient3809"
       xlink:href="#linearGradient3803"
       gradientUnits="userSpaceOnUse"
       gradientTransform="translate(0,1)" />
    <linearGradient
       id="linearGradient16997">
      <stop
         id="stop16999"
         style="stop-color:#000000;stop-opacity:1"
         offset="0" />
      <stop
         id="stop17001"
         style="stop-color:#000000;stop-opacity:0"
         offset="1" />
    </linearGradient>
    <linearGradient
       x1="44.69643"
       y1="66.995277"
       x2="44.69643"
       y2="78.306824"
       id="linearGradient3813"
       xlink:href="#linearGradient3803"
       gradientUnits="userSpaceOnUse"
       gradientTransform="matrix(1,0,0,0.4210526,-1.3176576e-7,44.789471)" />
    <linearGradient
       id="linearGradient17004">
      <stop
         id="stop17006"
         style="stop-color:#000000;stop-opacity:1"
         offset="0" />
      <stop
         id="stop17008"
         style="stop-color:#000000;stop-opacity:0"
         offset="1" />
    </linearGradient>
    <linearGradient
       x1="45.447727"
       y1="92.539597"
       x2="45.447727"
       y2="7.0165396"
       id="ButtonShadow"
       gradientUnits="userSpaceOnUse"
       gradientTransform="scale(1.0058652,0.994169)">
      <stop
         id="stop3750"
         style="stop-color:#000000;stop-opacity:1"
         offset="0" />
      <stop
         id="stop3752"
         style="stop-color:#000000;stop-opacity:0.58823532"
         offset="1" />
    </linearGradient>
    <linearGradient
       x1="45.447727"
       y1="92.539597"
       x2="45.447727"
       y2="7.0165396"
       id="linearGradient17015"
       gradientUnits="userSpaceOnUse"
       gradientTransform="scale(1.0058652,0.994169)">
      <stop
         id="stop17017"
         style="stop-color:#000000;stop-opacity:1"
         offset="0" />
      <stop
         id="stop17019"
         style="stop-color:#000000;stop-opacity:0.58823532"
         offset="1" />
    </linearGradient>
    <linearGradient
       x1="45.447727"
       y1="92.539597"
       x2="45.447727"
       y2="7.0165396"
       id="linearGradient17022"
       gradientUnits="userSpaceOnUse"
       gradientTransform="scale(1.0058652,0.994169)">
      <stop
         id="stop17024"
         style="stop-color:#000000;stop-opacity:1"
         offset="0" />
      <stop
         id="stop17026"
         style="stop-color:#000000;stop-opacity:0.58823532"
         offset="1" />
    </linearGradient>
    <linearGradient
       x1="45.447727"
       y1="92.539597"
       x2="45.447727"
       y2="7.0165396"
       id="linearGradient17029"
       gradientUnits="userSpaceOnUse"
       gradientTransform="scale(1.0058652,0.994169)">
      <stop
         id="stop17031"
         style="stop-color:#000000;stop-opacity:1"
         offset="0" />
      <stop
         id="stop17033"
         style="stop-color:#000000;stop-opacity:0.58823532"
         offset="1" />
    </linearGradient>
    <linearGradient
       x1="48"
       y1="92"
       x2="48"
       y2="7"
       id="linearGradient16938"
       xlink:href="#ButtonShadow"
       gradientUnits="userSpaceOnUse" />
    <linearGradient
       x1="45.447727"
       y1="92.539597"
       x2="45.447727"
       y2="7.0165396"
       id="linearGradient17036"
       gradientUnits="userSpaceOnUse"
       gradientTransform="scale(1.0058652,0.994169)">
      <stop
         id="stop17038"
         style="stop-color:#000000;stop-opacity:1"
         offset="0" />
      <stop
         id="stop17040"
         style="stop-color:#000000;stop-opacity:0.58823532"
         offset="1" />
    </linearGradient>
    <filter
       color-interpolation-filters="sRGB"
       id="filter17946">
      <feGaussianBlur
         id="feGaussianBlur17948"
         stdDeviation="0.73319425" />
    </filter>
    <linearGradient
       x1="43.30954"
       y1="91.125015"
       x2="43.30954"
       y2="82.822479"
       id="linearGradient17960"
       xlink:href="#linearGradient3734"
       gradientUnits="userSpaceOnUse" />
    <linearGradient
       x1="48"
       y1="86.071426"
       x2="48"
       y2="72.303963"
       id="linearGradient17962"
       xlink:href="#linearGradient3771"
       gradientUnits="userSpaceOnUse"
       gradientTransform="translate(0,1)" />
    <linearGradient
       x1="37"
       y1="72.089287"
       x2="37"
       y2="84"
       id="linearGradient17964"
       xlink:href="#linearGradient3803"
       gradientUnits="userSpaceOnUse"
       gradientTransform="translate(0,1)" />
    <linearGradient
       x1="60"
       y1="70"
       x2="60"
       y2="84.028442"
       id="linearGradient17966"
       xlink:href="#linearGradient3803"
       gradientUnits="userSpaceOnUse"
       gradientTransform="translate(0,1)" />
    <linearGradient
       x1="44.69643"
       y1="66.995277"
       x2="44.69643"
       y2="78.306824"
       id="linearGradient17968"
       xlink:href="#linearGradient3803"
       gradientUnits="userSpaceOnUse"
       gradientTransform="matrix(1,0,0,0.4210526,-1.3176576e-7,44.789471)" />
    <linearGradient
       x1="68.517296"
       y1="9.0625"
       x2="68.517296"
       y2="90"
       id="linearGradient18002"
       xlink:href="#linearGradient3737-1"
       gradientUnits="userSpaceOnUse"
       gradientTransform="matrix(0.41193338,0,0,0.41193338,253.26973,380.39136)" />
    <linearGradient
       x1="142.47113"
       y1="16.125"
       x2="142.47113"
       y2="58"
       id="linearGradient18005"
       xlink:href="#linearGradient3687"
       gradientUnits="userSpaceOnUse"
       gradientTransform="matrix(0.41193338,0,0,0.41193338,220.31506,380.39136)" />
    <linearGradient
       x1="65.15625"
       y1="16.125"
       x2="65.15625"
       y2="66"
       id="linearGradient18008"
       xlink:href="#linearGradient3737-1"
       gradientUnits="userSpaceOnUse"
       gradientTransform="matrix(0.41193338,0,0,0.41193338,253.26973,380.39136)" />
    <radialGradient
       cx="48"
       cy="72.097908"
       r="42"
       fx="48"
       fy="72.097908"
       id="radialGradient18012"
       xlink:href="#linearGradient3737-4"
       gradientUnits="userSpaceOnUse"
       gradientTransform="matrix(0.47673581,0,0,0.41024764,249.33535,381.29643)" />
    <radialGradient
       cx="48"
       cy="4.3132138"
       r="35.9375"
       fx="48"
       fy="4.3132138"
       id="radialGradient18019"
       xlink:href="#linearGradient3175-4"
       gradientUnits="userSpaceOnUse"
       gradientTransform="matrix(1.1150356e-8,-0.66747279,0.55019973,0,269.84553,440.53669)" />
    <linearGradient
       x1="36.357143"
       y1="6"
       x2="36.357143"
       y2="63.893143"
       id="linearGradient18022"
       xlink:href="#linearGradient3737-5"
       gradientUnits="userSpaceOnUse"
       gradientTransform="matrix(0.41193338,0,0,0.41193338,252.44586,381.21523)" />
    <linearGradient
       x1="48"
       y1="72"
       x2="48"
       y2="5.9877172"
       id="linearGradient18026"
       xlink:href="#linearGradient3700-8"
       gradientUnits="userSpaceOnUse"
       gradientTransform="matrix(0.41193338,0,0,0.41193338,252.44586,381.21523)" />
    <linearGradient
       x1="49"
       y1="91"
       x2="49"
       y2="7"
       id="linearGradient18037"
       xlink:href="#ButtonShadow"
       gradientUnits="userSpaceOnUse"
       gradientTransform="matrix(0.41193338,0,0,0.41193338,252.44586,381.21523)" />
    <linearGradient
       x1="48"
       y1="92"
       x2="48"
       y2="7"
       id="linearGradient18040"
       xlink:href="#ButtonShadow"
       gradientUnits="userSpaceOnUse"
       gradientTransform="matrix(0.41193338,0,0,0.41193338,252.44586,381.21523)" />
    <linearGradient
       x1="48"
       y1="92"
       x2="48"
       y2="7"
       id="linearGradient18043"
       xlink:href="#ButtonShadow"
       gradientUnits="userSpaceOnUse"
       gradientTransform="matrix(0.41193338,0,0,0.41193338,252.44586,381.21523)" />
    <linearGradient
       x1="48"
       y1="92"
       x2="48"
       y2="7"
       id="linearGradient18046"
       xlink:href="#ButtonShadow"
       gradientUnits="userSpaceOnUse"
       gradientTransform="matrix(0.41193338,0,0,0.41193338,252.44586,381.21523)" />
    <linearGradient
       x1="48"
       y1="92"
       x2="48"
       y2="7"
       id="linearGradient18049"
       xlink:href="#ButtonShadow"
       gradientUnits="userSpaceOnUse"
       gradientTransform="matrix(0.41193338,0,0,0.41193338,252.44586,381.21523)" />
    <linearGradient
       x1="48"
       y1="92"
       x2="48"
       y2="7"
       id="linearGradient18105"
       xlink:href="#ButtonShadow"
       gradientUnits="userSpaceOnUse"
       gradientTransform="matrix(0.41193338,0,0,0.41193338,252.44586,381.21523)" />
    <linearGradient
       x1="48"
       y1="92"
       x2="48"
       y2="7"
       id="linearGradient18107"
       xlink:href="#ButtonShadow"
       gradientUnits="userSpaceOnUse"
       gradientTransform="matrix(0.41193338,0,0,0.41193338,252.44586,381.21523)" />
    <linearGradient
       x1="48"
       y1="92"
       x2="48"
       y2="7"
       id="linearGradient18109"
       xlink:href="#ButtonShadow"
       gradientUnits="userSpaceOnUse"
       gradientTransform="matrix(0.41193338,0,0,0.41193338,252.44586,381.21523)" />
    <linearGradient
       x1="48"
       y1="92"
       x2="48"
       y2="7"
       id="linearGradient18111"
       xlink:href="#ButtonShadow"
       gradientUnits="userSpaceOnUse"
       gradientTransform="matrix(0.41193338,0,0,0.41193338,252.44586,381.21523)" />
    <linearGradient
       x1="49"
       y1="91"
       x2="49"
       y2="7"
       id="linearGradient18113"
       xlink:href="#ButtonShadow"
       gradientUnits="userSpaceOnUse"
       gradientTransform="matrix(0.41193338,0,0,0.41193338,252.44586,381.21523)" />
    <linearGradient
       x1="43.30954"
       y1="91.125015"
       x2="43.30954"
       y2="82.822479"
       id="linearGradient18115"
       xlink:href="#linearGradient3734"
       gradientUnits="userSpaceOnUse" />
    <linearGradient
       x1="48"
       y1="86.071426"
       x2="48"
       y2="72.303963"
       id="linearGradient18117"
       xlink:href="#linearGradient3771"
       gradientUnits="userSpaceOnUse"
       gradientTransform="translate(0,1)" />
    <linearGradient
       x1="37"
       y1="72.089287"
       x2="37"
       y2="84"
       id="linearGradient18119"
       xlink:href="#linearGradient3803"
       gradientUnits="userSpaceOnUse"
       gradientTransform="translate(0,1)" />
    <linearGradient
       x1="60"
       y1="70"
       x2="60"
       y2="84.028442"
       id="linearGradient18121"
       xlink:href="#linearGradient3803"
       gradientUnits="userSpaceOnUse"
       gradientTransform="translate(0,1)" />
    <linearGradient
       x1="44.69643"
       y1="66.995277"
       x2="44.69643"
       y2="78.306824"
       id="linearGradient18123"
       xlink:href="#linearGradient3803"
       gradientUnits="userSpaceOnUse"
       gradientTransform="matrix(1,0,0,0.4210526,-1.3176576e-7,44.789471)" />
    <linearGradient
       x1="48"
       y1="72"
       x2="48"
       y2="5.9877172"
       id="linearGradient18125"
       xlink:href="#linearGradient3700-8"
       gradientUnits="userSpaceOnUse"
       gradientTransform="matrix(0.41193338,0,0,0.41193338,252.44586,381.21523)" />
    <linearGradient
       x1="36.357143"
       y1="6"
       x2="36.357143"
       y2="63.893143"
       id="linearGradient18127"
       xlink:href="#linearGradient3737-5"
       gradientUnits="userSpaceOnUse"
       gradientTransform="matrix(0.41193338,0,0,0.41193338,252.44586,381.21523)" />
    <radialGradient
       cx="48"
       cy="4.3132138"
       r="35.9375"
       fx="48"
       fy="4.3132138"
       id="radialGradient18129"
       xlink:href="#linearGradient3175-4"
       gradientUnits="userSpaceOnUse"
       gradientTransform="matrix(1.1150356e-8,-0.66747279,0.55019973,0,269.84553,440.53669)" />
    <radialGradient
       cx="48"
       cy="72.097908"
       r="42"
       fx="48"
       fy="72.097908"
       id="radialGradient18131"
       xlink:href="#linearGradient3737-4"
       gradientUnits="userSpaceOnUse"
       gradientTransform="matrix(0.47673581,0,0,0.41024764,249.33535,381.29643)" />
    <linearGradient
       x1="65.15625"
       y1="16.125"
       x2="65.15625"
       y2="66"
       id="linearGradient18133"
       xlink:href="#linearGradient3737-1"
       gradientUnits="userSpaceOnUse"
       gradientTransform="matrix(0.41193338,0,0,0.41193338,253.26973,380.39136)" />
    <linearGradient
       x1="142.47113"
       y1="16.125"
       x2="142.47113"
       y2="58"
       id="linearGradient18135"
       xlink:href="#linearGradient3687"
       gradientUnits="userSpaceOnUse"
       gradientTransform="matrix(0.41193338,0,0,0.41193338,220.31506,380.39136)" />
    <linearGradient
       x1="68.517296"
       y1="9.0625"
       x2="68.517296"
       y2="90"
       id="linearGradient18137"
       xlink:href="#linearGradient3737-1"
       gradientUnits="userSpaceOnUse"
       gradientTransform="matrix(0.41193338,0,0,0.41193338,253.26973,380.39136)" />
    <linearGradient
       x1="52.92857"
       y1="60"
       x2="52.92857"
       y2="19.986593"
       id="linearGradient18139"
       xlink:href="#linearGradient3767"
       gradientUnits="userSpaceOnUse"
       gradientTransform="translate(0,2.5000001e-6)" />
  </defs>
  <g
     transform="translate(-238.36796,-372.32673)"
     id="layer1"
     style="display:none">
    <image
       xlink:href="file:///home/lgarcia/aurex-google-code/trunk/aurex-artwork/aurex-logos/ubiquity/pixmaps/ubiquity.png"
       x="240.64285"
       y="371.21933"
       width="48"
       height="48"
       id="image2826" />
  </g>
  <g
     transform="translate(-238.36796,-372.32673)"
     id="layer2"
     style="display:inline">
    <g
       transform="matrix(0.95602737,0,0,0.95602737,8.338809,15.67318)"
       id="g18051">
      <path
         d="m 257.38906,382.90158 c -2.48752,-0.0697 -4.37812,2.33216 -4.08071,4.71149 3e-5,0.0172 -3e-5,0.0343 0,0.0515 0.0124,7.45042 -0.0318,14.8929 0.0129,22.34738 a 0.37084324,0.37084324 0 0 0 0,0.0258 c 0.17236,2.39034 2.54923,3.95851 4.8016,3.68165 0.0173,-0.002 0.0343,0.002 0.0515,0 l 7.90397,0 0,1.72497 c -1.02965,0.0153 -2.13163,-0.11967 -3.25685,0.11586 a 0.37084324,0.37084324 0 0 0 -0.0901,0.0257 c -0.88964,0.46542 -1.87757,0.88916 -2.76767,1.45464 a 0.37084324,0.37084324 0 0 0 -0.0258,0.0128 c -0.26448,0.19887 -0.43203,0.44455 -0.46342,0.69514 -0.0171,0.13622 0.0434,0.21667 0.0772,0.32182 a 0.37084324,0.37084324 0 0 0 -0.0515,0.16735 c -0.0135,0.35309 -0.007,0.77852 0.15448,1.18431 0.16166,0.40578 0.55312,0.7847 1.11994,0.84961 a 0.37084324,0.37084324 0 0 0 0.0386,0 c 6.4335,0.0765 12.86853,0.0169 19.2965,0.0386 a 0.37084324,0.37084324 0 0 0 0.0129,0 c 1.21564,-0.0618 2.55479,0.15397 3.88762,-0.15448 a 0.37084324,0.37084324 0 0 0 0.0644,-0.0129 c 0.52638,-0.22278 0.76184,-0.71479 0.82387,-1.14569 0.062,-0.4309 0.0191,-0.84886 0.0257,-1.13282 a 0.37084324,0.37084324 0 0 0 -0.0129,-0.11585 c -0.16122,-0.57357 -0.62617,-0.89632 -1.05558,-1.10707 -0.42941,-0.21076 -0.85762,-0.35886 -1.13281,-0.55354 a 0.37084324,0.37084324 0 0 0 -0.0129,0 c -0.73606,-0.48156 -1.59861,-0.75219 -2.51022,-0.64365 -0.0176,0.002 -0.0338,-0.002 -0.0515,0 l -1.78933,0 0,-1.72497 c 3.01826,-0.008 6.03438,0.0296 9.06253,-0.0128 a 0.37084324,0.37084324 0 0 0 0.0258,0 c 2.39033,-0.17236 3.95851,-2.54923 3.68165,-4.8016 -0.002,-0.0173 0.002,-0.0343 0,-0.0515 -0.0124,-7.41566 0.0318,-14.82467 -0.0129,-22.2444 a 0.37084324,0.37084324 0 0 0 0,-0.0257 c -0.17236,-2.39034 -2.54923,-3.95851 -4.8016,-3.68165 l -0.0515,0 -28.86108,0 -0.0129,0 z m 3.06376,35.01433 c 0.17935,-0.0804 0.19538,-0.0159 0.21884,0 0.0117,0.008 0.0234,0.019 0.0515,0.0644 0.0281,0.0454 0.076,0.17984 0.0129,0.30895 -0.0467,0.0955 -0.0998,0.0995 -0.1416,0.11586 l 0.0258,-0.32183 -0.34757,0.11586 c 0.006,0.02 -0.0106,0.0118 0,-0.0515 0.0106,-0.0633 0.0905,-0.19151 0.18022,-0.23172 z"
         id="path3999"
         style="opacity:0.07999998;fill:url(#linearGradient18105);fill-opacity:1;fill-rule:nonzero;stroke:none;display:inline" />
      <path
         d="m 257.38906,383.27489 c -2.26187,-0.0713 -4.00792,2.16012 -3.7074,4.33308 0.0127,7.46952 -0.0255,14.94032 0.0192,22.40903 0.15654,2.17103 2.35352,3.60901 4.41817,3.32903 2.77753,0 5.55505,0 8.33258,0 0,0.82387 0,1.64773 0,2.4716 -1.17938,0.0689 -2.39649,-0.13908 -3.55293,0.10298 -0.9088,0.47545 -1.88861,0.88679 -2.74193,1.4289 -0.83997,0.63159 0.34098,1.19398 -0.28321,0.9011 -0.0256,0.66986 0.0455,1.55042 0.94555,1.65348 6.42827,0.0765 12.86389,0.0111 19.295,0.0329 1.26924,-0.0645 2.57822,0.14607 3.81615,-0.14042 0.80387,-0.34022 0.60551,-1.29254 0.62069,-1.94499 -0.24506,-0.87181 -1.36476,-0.9704 -2.05077,-1.45571 -0.69359,-0.45377 -1.4642,-0.69048 -2.29648,-0.57821 -0.73932,0 -1.47863,0 -2.21794,0 0,-0.82387 0,-1.64773 0,-2.4716 3.14682,-0.0123 6.29489,0.0249 9.4409,-0.0192 2.17103,-0.15654 3.60901,-2.35352 3.32904,-4.41817 -0.0127,-7.43475 0.0255,-14.8708 -0.0192,-22.30474 -0.15655,-2.17103 -2.35353,-3.60901 -4.41818,-3.32904 -9.64308,0 -19.28616,0 -28.92924,0 z m 26.63407,33.93301 c 0.18281,0.0478 -0.0289,0.0559 0,0 z m -23.90501,0.60503 c 0.20218,-0.0387 -0.11596,0.0783 0,0 z m 0.50205,0.27033 c 0.13973,0.43061 -0.56254,-0.0437 0,0 z m -0.75951,0.0772 c 0.004,0.10801 0.0324,-0.0161 0,0 z m 0.45056,0.0772 c 0.0549,0.0579 -0.0432,0.0274 0,0 z"
         id="path3985"
         style="opacity:0.1;fill:url(#linearGradient18107);fill-opacity:1;fill-rule:nonzero;stroke:none;display:inline" />
      <path
         d="m 257.38906,383.66108 c -1.83395,0 -3.32121,1.48726 -3.32121,3.32121 l 0,22.65634 c 0,1.83395 1.48726,3.32121 3.32121,3.32121 l 9.44873,0 0,2.44586 0,0.79812 -3.30834,0 c -0.009,-8.3e-4 -0.0164,3.8e-4 -0.0258,0 -0.0376,-0.002 -0.0683,-0.002 -0.10298,0 a 0.4406563,0.4406563 0 0 0 -0.0129,0 c -0.0469,0.004 -0.0958,0.004 -0.1416,0.0129 -0.0981,0.0205 -0.12284,0.0411 -0.0644,0.0257 -0.0451,0.0119 -0.0845,0.0203 -0.12873,0.0386 0.0614,-0.0247 0.0517,-0.0327 -0.0644,0.0258 l -2.36861,1.19718 a 0.4406563,0.4406563 0 0 0 -0.0386,0.0258 c 8.2e-4,-0.002 -0.0179,0.008 -0.0901,0.0644 -0.0123,0.0101 -0.0265,0.0143 -0.0386,0.0258 -0.0127,0.0103 -0.0114,-8.3e-4 -0.0258,0.0129 -0.10654,0.10196 -0.1973,0.28025 -0.18022,0.4763 a 0.4406563,0.4406563 0 0 0 0,0.0129 c -0.011,-0.10159 -0.002,-0.0365 0.0129,0.0515 0.004,0.0182 -0.004,-0.002 0,0.0129 0.022,0.0836 0.0231,0.071 0.0257,0.0644 4.1e-4,-10e-4 4.1e-4,0.0163 0,0.0128 l 0,0.64365 a 0.4406563,0.4406563 0 0 0 0.0515,0.21884 c 0.16947,0.30613 0.48651,0.42609 0.79812,0.4248 l 22.16717,0 c 0.31158,10e-4 0.62865,-0.11866 0.79812,-0.4248 a 0.4406563,0.4406563 0 0 0 0.0515,-0.21884 l 0,-0.65652 c 0.006,-0.0161 0.0207,-0.0213 0.0258,-0.0386 a 0.4406563,0.4406563 0 0 0 0,-0.0386 c 0.0296,-0.13403 0.0129,-0.17337 0.0128,-0.11586 a 0.4406563,0.4406563 0 0 0 0,-0.0644 c -8.2e-4,-0.005 -0.0119,-0.008 -0.0128,-0.0129 -4.1e-4,-0.006 0.002,-0.015 0,-0.0257 -8.3e-4,-0.004 8.2e-4,-0.009 0,-0.0129 -0.001,-0.0104 -0.008,-0.0206 -0.0129,-0.0386 -0.003,-0.009 -0.01,-0.0175 -0.0129,-0.0257 -0.006,-0.0153 -0.006,-0.0373 -0.0129,-0.0515 a 0.4406563,0.4406563 0 0 0 0,-0.0129 c -0.0105,-0.0222 -0.0263,-0.0319 -0.0386,-0.0515 a 0.4406563,0.4406563 0 0 0 -0.0515,-0.0772 0.4406563,0.4406563 0 0 0 -0.0257,-0.0128 c -0.002,-0.002 0.002,-0.0106 0,-0.0129 a 0.4406563,0.4406563 0 0 0 -0.0129,-0.0258 c -3e-5,-3e-5 -0.0181,-0.008 -0.0257,-0.0129 l 0,0.0129 c -0.002,-0.002 -0.0108,0.002 -0.0129,0 0,0 0.0129,-0.0129 0.0129,-0.0129 3e-5,3e-5 -0.0176,-0.008 -0.0258,-0.0128 -0.005,-0.003 -0.006,-0.009 -0.0129,-0.0129 a 0.4406563,0.4406563 0 0 0 -0.0129,-0.0129 c -0.0104,-0.007 -0.0205,-0.009 -0.0257,-0.0129 -0.004,-0.002 -0.01,0.002 -0.0129,0 2e-4,7e-5 4.1e-4,-0.0125 0,-0.0129 -0.004,-0.004 -0.0115,-0.0246 -0.0644,-0.0515 a 0.4406563,0.4406563 0 0 0 -0.0257,0 l -0.0901,-0.0386 0,-0.0129 -2.25276,-1.14569 a 0.4406563,0.4406563 0 0 0 -0.0515,-0.0129 c -0.009,-0.003 -0.0165,-0.01 -0.0257,-0.0129 -0.0112,-0.004 -0.0265,-0.008 -0.0386,-0.0129 -0.0157,-0.006 -0.0337,-0.007 -0.0515,-0.0128 -0.0137,-0.004 -0.0233,-0.009 -0.0386,-0.0129 -0.009,-0.003 -0.0164,-0.0101 -0.0257,-0.0129 a 0.4406563,0.4406563 0 0 0 -0.0386,-0.0129 c -0.0961,-0.0195 -0.18189,-0.0138 -0.25746,-0.0129 l -3.33409,0 0,-0.79812 0,-2.44586 9.44872,0 c 1.83396,0 3.32122,-1.48725 3.32122,-3.32121 l 0,-22.65634 c 0,-1.83395 -1.48726,-3.32121 -3.32122,-3.32121 l -29.6592,0 z m 26.2865,33.85577 c 0.0327,4.2e-4 0.10339,9e-5 0.10299,0 -2e-5,0 -4.2e-4,0.0127 0,0.0129 -0.0169,-0.002 -0.0797,-0.0143 -0.10299,-0.0129 z"
         id="path3977"
         style="opacity:0.2;fill:url(#linearGradient18109);fill-opacity:1;fill-rule:nonzero;stroke:none;display:inline" />
      <path
         d="m 257.38906,384.09876 c -1.59747,0 -2.88353,1.28606 -2.88353,2.88353 l 0,22.65634 c 0,1.59748 1.28606,2.88353 2.88353,2.88353 l 9.8864,0 0,2.88354 0,1.2358 -3.77176,0 c -0.0288,-0.002 -0.0485,-0.002 -0.0772,0 -0.0308,0.002 -0.0611,0.007 -0.0901,0.0129 -0.0134,0.003 -0.0257,0.009 -0.0386,0.0128 -0.0274,0.007 -0.0533,0.0159 -0.0772,0.0258 -0.0121,0.005 -0.0279,0.007 -0.0386,0.0129 l -2.36862,1.19718 c -0.0197,0.012 -0.037,0.0249 -0.0515,0.0386 -0.007,0.006 -0.0196,0.007 -0.0258,0.0129 -0.037,0.0354 -0.055,0.0759 -0.0515,0.11586 4.1e-4,0.004 -8.2e-4,0.009 0,0.0129 0.002,0.008 0.009,0.0174 0.0129,0.0257 0.003,0.009 0.008,0.0173 0.0129,0.0257 0.003,0.005 0.009,0.008 0.0129,0.0128 l 0,0.75951 c 0.0703,0.12704 0.23009,0.20671 0.41193,0.20596 l 22.16717,0 c 0.18184,8.3e-4 0.34161,-0.0789 0.41193,-0.20596 l 0,-0.75951 c 0.0191,-0.0203 0.0322,-0.0421 0.0386,-0.0644 0.002,-0.008 -10e-6,-0.0174 0,-0.0258 -0.002,-0.013 -0.006,-0.0259 -0.0129,-0.0386 -10e-4,-0.003 0.001,-0.01 0,-0.0129 -0.006,-0.0132 -0.0149,-0.0262 -0.0258,-0.0386 -0.002,-0.002 -0.0113,0.002 -0.0129,0 2.4e-4,-0.004 2.4e-4,-0.009 0,-0.0128 -0.002,-0.002 -0.0104,0.002 -0.0128,0 -0.007,-0.009 -0.0161,-0.0175 -0.0258,-0.0257 -0.013,-0.009 -0.0226,-0.0176 -0.0386,-0.0257 l -0.11585,-0.0515 -2.25277,-1.14569 c -0.0124,-0.005 -0.0253,-0.009 -0.0386,-0.0129 -0.0234,-0.009 -0.051,-0.0189 -0.0772,-0.0258 -0.0124,-0.005 -0.0253,-0.009 -0.0386,-0.0128 -0.0548,-0.0111 -0.10776,-0.0136 -0.16735,-0.0129 l -3.77176,0 0,-1.2358 0,-2.88354 9.8864,0 c 1.59748,0 2.88353,-1.28605 2.88353,-2.88353 l 0,-22.65634 c 0,-1.59747 -1.28605,-2.88353 -2.88353,-2.88353 l -29.6592,0 z"
         id="path3951"
         style="opacity:0.3;fill:url(#linearGradient18111);fill-opacity:1;fill-rule:nonzero;stroke:none;display:inline" />
      <path
         d="m 257.38906,384.09876 c -1.36926,0 -2.4716,1.10233 -2.4716,2.4716 l 0,23.06827 c 0,1.36927 1.10234,2.4716 2.4716,2.4716 l 9.8864,0 0,2.88353 0,1.2358 -3.35983,0 c -0.0288,-0.002 -0.0485,-0.002 -0.0772,0 a 0.44916618,0.2268493 0 0 0 -0.0901,0.0129 c -0.0134,0.003 -0.0257,0.009 -0.0386,0.0129 a 0.44916618,0.2268493 0 0 0 -0.0772,0.0257 c -0.0121,0.005 -0.0279,0.007 -0.0386,0.0129 l -2.36862,1.19718 a 0.44916618,0.2268493 0 0 0 -0.0515,0.0386 c -0.007,0.006 -0.0196,0.007 -0.0257,0.0129 a 0.44916618,0.2268493 0 0 0 -0.0515,0.11585 c 4.1e-4,0.004 -8.3e-4,0.009 0,0.0129 0.002,0.008 0.009,0.0174 0.0128,0.0257 a 0.44916618,0.2268493 0 0 0 0.0129,0.0257 c 0.003,0.005 0.009,0.008 0.0129,0.0129 l 0,0.7595 c 0.0703,0.12704 0.23009,0.20672 0.41194,0.20597 l 21.34329,0 c 0.18185,8.2e-4 0.34161,-0.0789 0.41194,-0.20597 l 0,-0.7595 a 0.44916618,0.2268493 0 0 0 0.0386,-0.0644 c 0.002,-0.008 -2e-5,-0.0174 0,-0.0258 a 0.44916618,0.2268493 0 0 0 -0.0129,-0.0386 c -10e-4,-0.003 10e-4,-0.01 0,-0.0128 a 0.44916618,0.2268493 0 0 0 -0.0257,-0.0386 c -0.002,-0.002 -0.0113,0.002 -0.0129,0 a 0.44916618,0.2268493 0 0 0 0,-0.0129 c -0.002,-0.002 -0.0104,0.002 -0.0129,0 a 0.44916618,0.2268493 0 0 0 -0.0257,-0.0257 c -0.013,-0.009 -0.0226,-0.0176 -0.0386,-0.0257 l -0.11586,-0.0515 -2.25276,-1.14569 a 0.44916618,0.2268493 0 0 0 -0.0386,-0.0129 c -0.0233,-0.009 -0.051,-0.0189 -0.0772,-0.0257 a 0.44916618,0.2268493 0 0 0 -0.0386,-0.0129 c -0.0548,-0.0111 -0.10776,-0.0136 -0.16735,-0.0129 l -3.35983,0 0,-1.2358 0,-2.88353 9.8864,0 c 1.36927,0 2.4716,-1.10233 2.4716,-2.4716 l 0,-23.06827 c 0,-1.36927 -1.10233,-2.4716 -2.4716,-2.4716 l -29.6592,0 z"
         id="path3929"
         style="opacity:0.45;fill:url(#linearGradient18113);fill-opacity:1;fill-rule:nonzero;stroke:none;display:inline" />
      <g
         transform="matrix(0.41193338,0,0,0.41193338,252.44586,381.21523)"
         id="layer4-5"
         style="display:inline">
        <path
           d="m 27.65625,83.999995 c -0.215725,0.02037 -0.438368,0.07797 -0.59375,0.15625 l -5.75,2.906246 c -0.31111,0.158167 -0.389467,0.388148 -0.21875,0.593749 l 0,1.843748 c 0.170718,0.3084 0.558565,0.50182 1,0.499999 l 51.8125,0 c 0.441438,0.0018 0.829283,-0.191597 1,-0.499999 l 0,-1.843748 c 0.17072,-0.205604 0.09236,-0.435579 -0.21875,-0.593749 l -5.75,-2.906246 c -0.209745,-0.100724 -0.491922,-0.160026 -0.78125,-0.15625 l -40.3125,0 c -0.06979,-0.0051 -0.117707,-0.0051 -0.1875,0 z"
           id="path3742"
           style="fill:#414141;fill-opacity:1;fill-rule:nonzero;stroke:none" />
        <path
           d="m 26.78125,82.875 a 1.1365352,1.1365352 0 0 0 -0.59375,0.3125 l -6,6 A 1.1365352,1.1365352 0 0 0 21,91.125 l 54,0 a 1.1365352,1.1365352 0 0 0 0.8125,-1.9375 l -6,-6 A 1.1365352,1.1365352 0 0 0 69,82.875 l -42,0 a 1.1365352,1.1365352 0 0 0 -0.21875,0 z"
           transform="matrix(0.9593944,0,0,0.4845377,1.9490699,43.846486)"
           id="path3732"
           style="fill:url(#linearGradient18115);fill-opacity:1;fill-rule:nonzero;stroke:none" />
        <path
           d="m 21.59375,86.937491 -0.28125,0.125 c -0.31111,0.158167 -0.389467,0.388148 -0.21875,0.593749 0.170717,0.205598 0.558565,0.344964 1,0.34375 l 51.8125,0 c 0.441437,0.0012 0.829283,-0.138148 1,-0.34375 0.17072,-0.205604 0.09236,-0.435579 -0.21875,-0.593749 l -0.28125,-0.125 c -0.155282,0.04133 -0.316934,0.063 -0.5,0.0625 l -51.8125,0 c -0.183066,5.03e-4 -0.344719,-0.02117 -0.5,-0.0625 z"
           id="path3758"
           style="opacity:0.6;fill:#ffffff;fill-opacity:1;fill-rule:nonzero;stroke:none" />
        <rect
           width="24"
           height="19"
           x="36"
           y="68"
           id="rect3727"
           style="fill:url(#linearGradient18117);fill-opacity:1;fill-rule:nonzero;stroke:none" />
        <rect
           width="1"
           height="14"
           x="36"
           y="71"
           id="rect3781"
           style="opacity:0.5;fill:url(#linearGradient18119);fill-opacity:1;fill-rule:nonzero;stroke:none" />
        <rect
           width="1"
           height="14"
           x="59"
           y="71"
           id="rect3799"
           style="opacity:0.5;fill:url(#linearGradient18121);fill-opacity:1;fill-rule:nonzero;stroke:none" />
        <rect
           width="24"
           height="8"
           x="36"
           y="73"
           id="rect3811"
           style="opacity:0.8;fill:url(#linearGradient18123);fill-opacity:1;fill-rule:nonzero;stroke:none" />
      </g>
      <rect
         width="34.602406"
         height="28.011469"
         rx="2.4716003"
         ry="2.4716003"
         x="254.91747"
         y="383.68683"
         id="rect2419-9"
         style="fill:url(#linearGradient18125);fill-opacity:1;fill-rule:nonzero;stroke:none" />
      <path
         d="m 254.91746,408.40283 0,0.82387 c 0,1.36926 1.10234,2.4716 2.4716,2.4716 l 29.65921,0 c 1.36926,0 2.4716,-1.10234 2.4716,-2.4716 l 0,-0.82387 c 0,1.36927 -1.10234,2.4716 -2.4716,2.4716 l -29.65921,0 c -1.36926,0 -2.4716,-1.10233 -2.4716,-2.4716 z"
         id="rect3884"
         style="fill:#b3b3b3;fill-opacity:1;fill-rule:nonzero;stroke:none" />
      <path
         d="m 257.38906,383.68683 c -1.36926,0 -2.4716,1.10233 -2.4716,2.4716 l 0,0.82386 0,20.60758 0,0.82387 c 0,0.13789 0.0171,0.26805 0.0386,0.39906 0.0201,0.12177 0.04,0.24589 0.0772,0.36044 0.004,0.0125 0.009,0.0262 0.0129,0.0386 0.0407,0.11855 0.0968,0.22552 0.15448,0.3347 0.0596,0.11266 0.13001,0.22064 0.20596,0.32182 0.076,0.10119 0.15397,0.19504 0.24459,0.2832 0.18122,0.17634 0.38841,0.33554 0.6179,0.45056 0.11474,0.0575 0.23623,0.10172 0.36044,0.1416 -0.10554,-0.0413 -0.20049,-0.0973 -0.29608,-0.15448 -0.003,-0.002 -0.01,0.002 -0.0129,0 -0.0131,-0.008 -0.0257,-0.0175 -0.0386,-0.0257 -0.0496,-0.0316 -0.0952,-0.0674 -0.1416,-0.10299 -0.0437,-0.0333 -0.0879,-0.0664 -0.12873,-0.10298 -0.0733,-0.0665 -0.14313,-0.14227 -0.20597,-0.21884 -0.0443,-0.0537 -0.09,-0.10928 -0.12872,-0.16735 -0.0103,-0.0158 -0.0158,-0.0354 -0.0258,-0.0515 -0.0267,-0.0424 -0.0537,-0.0842 -0.0772,-0.12873 -0.0416,-0.0802 -0.0847,-0.17124 -0.11585,-0.25746 -0.003,-0.009 -0.01,-0.0167 -0.0129,-0.0257 -0.0131,-0.0379 -0.0147,-0.077 -0.0257,-0.11586 -0.0125,-0.0439 -0.029,-0.0836 -0.0386,-0.12873 -0.03,-0.14068 -0.0515,-0.28761 -0.0515,-0.43768 l 0,-0.82386 0,-20.60758 0,-0.82387 c 0,-1.14593 0.91373,-2.05967 2.05966,-2.05967 l 0.82387,0 28.01147,0 0.82387,0 c 1.14593,0 2.05967,0.91374 2.05967,2.05967 l 0,0.82387 0,20.60758 0,0.82386 c 0,0.15007 -0.0215,0.297 -0.0515,0.43768 -0.0182,0.0852 -0.0364,0.16381 -0.0644,0.24459 -0.003,0.009 -0.01,0.0168 -0.0129,0.0257 -0.0258,0.0716 -0.057,0.15137 -0.0901,0.21884 -0.0171,0.0341 -0.0326,0.07 -0.0515,0.10299 -0.0225,0.04 -0.0522,0.0776 -0.0772,0.11585 -0.0388,0.0581 -0.0844,0.1137 -0.12873,0.16735 -0.059,0.0719 -0.12488,0.14294 -0.1931,0.20597 -0.005,0.004 -0.008,0.009 -0.0129,0.0129 -0.057,0.0517 -0.11744,0.0966 -0.18022,0.1416 -0.0422,0.0301 -0.0842,0.0632 -0.12873,0.0901 -0.003,0.002 -0.01,-0.002 -0.0129,0 -0.0956,0.0571 -0.19054,0.11319 -0.29608,0.15448 0.12421,-0.0399 0.2457,-0.0841 0.36044,-0.1416 0.22949,-0.11502 0.43667,-0.27422 0.6179,-0.45056 0.0906,-0.0882 0.16863,-0.18201 0.24459,-0.2832 0.0759,-0.10118 0.1464,-0.20916 0.20597,-0.32182 0.0577,-0.10918 0.11374,-0.21615 0.15447,-0.3347 0.004,-0.0127 0.009,-0.0258 0.0129,-0.0386 0.0373,-0.11455 0.0572,-0.23867 0.0772,-0.36044 0.0216,-0.13101 0.0386,-0.26117 0.0386,-0.39906 l 0,-0.82387 0,-20.60758 0,-0.82386 c 0,-1.36927 -1.10233,-2.4716 -2.4716,-2.4716 l -29.6592,0 z"
         id="rect3728-7"
         style="opacity:0.15;fill:url(#linearGradient18127);fill-opacity:1;fill-rule:nonzero;stroke:none" />
      <path
         d="m 287.04827,408.40283 0,-22.2444 -29.65921,0 0,22.2444 29.65921,0 z"
         id="path3215"
         style="opacity:0.79183673;fill:url(#radialGradient18129);fill-opacity:1;fill-rule:nonzero;stroke:none" />
      <path
         d="m 254.91746,408.81476 0,0.41194 c 0,1.36926 1.10234,2.4716 2.4716,2.4716 l 29.65921,0 c 1.36926,0 2.4716,-1.10234 2.4716,-2.4716 l 0,-0.41194 c 0,1.36927 -1.10234,2.4716 -2.4716,2.4716 l -29.65921,0 c -1.36926,0 -2.4716,-1.10233 -2.4716,-2.4716 z"
         id="rect3291"
         style="fill:#b3b3b3;fill-opacity:1;fill-rule:nonzero;stroke:none" />
      <path
         d="m 257.38906,386.15843 0,22.2444 29.65921,0 0,-22.2444 -29.65921,0 z m 0.82387,0.82386 28.01147,0 0,20.59667 -28.01147,0 0,-20.59667 z"
         id="path4001"
         style="opacity:0.07999998;fill:#000000;fill-opacity:1;fill-rule:nonzero;stroke:none" />
      <path
         d="m 257.59524,386.3646 0,21.83206 29.24685,0 0,-21.83206 -29.24685,0 z"
         id="path3374"
         style="opacity:0.15;fill:none;stroke:#000000;stroke-width:0.41234532;stroke-linecap:square;stroke-linejoin:miter;stroke-miterlimit:4;stroke-opacity:1;stroke-dasharray:none;stroke-dashoffset:0" />
      <rect
         width="29.659203"
         height="0.41193339"
         x="257.38907"
         y="408.42923"
         id="rect3724"
         style="opacity:0.4;fill:#ffffff;fill-opacity:1;fill-rule:nonzero;stroke:none" />
      <path
         d="m 257.38906,411.6983 c -1.36926,0 -2.4716,-1.10234 -2.4716,-2.4716 l 0,-0.82387 0,-21.42054 0,-0.82386 c 0,-0.13789 0.017,-0.26805 0.0386,-0.39906 0.0201,-0.12177 0.04,-0.24589 0.0772,-0.36045 0.004,-0.0125 0.009,-0.0262 0.0129,-0.0386 0.0407,-0.11855 0.0968,-0.22552 0.15448,-0.3347 0.0596,-0.11266 0.13001,-0.22064 0.20596,-0.32182 0.076,-0.10119 0.15398,-0.19504 0.24459,-0.28321 0.18123,-0.17633 0.38841,-0.33553 0.6179,-0.45055 0.11474,-0.0575 0.23623,-0.10172 0.36044,-0.1416 -0.10554,0.0413 -0.20049,0.0973 -0.29608,0.15447 -0.003,0.002 -0.01,-0.002 -0.0129,0 -0.0131,0.008 -0.0257,0.0175 -0.0386,0.0258 -0.0496,0.0316 -0.0952,0.0674 -0.1416,0.10298 -0.0437,0.0333 -0.0879,0.0664 -0.12873,0.10299 -0.0733,0.0665 -0.14313,0.14227 -0.20597,0.21884 -0.0443,0.0537 -0.09,0.10928 -0.12872,0.16734 -0.0103,0.0158 -0.0158,0.0354 -0.0258,0.0515 -0.0267,0.0424 -0.0537,0.0842 -0.0772,0.12872 -0.0416,0.0802 -0.0847,0.17125 -0.11585,0.25746 -0.003,0.009 -0.01,0.0167 -0.0129,0.0258 -0.0131,0.0379 -0.0147,0.077 -0.0257,0.11585 -0.0125,0.0439 -0.029,0.0836 -0.0386,0.12873 -0.0301,0.14069 -0.0515,0.28762 -0.0515,0.43768 l 0,0.82387 0,21.42054 0,0.82386 c 0,1.14594 1.03471,2.57215 2.05966,2.05967 l 0.82387,0 28.01147,0 0.82387,0 c 1.14593,0 2.05966,-0.91373 2.05966,-2.05967 l 0,-0.82386 0,-21.42054 0,-0.82387 c 0,-0.15006 -0.0215,-0.29699 -0.0515,-0.43768 -0.0182,-0.0852 -0.0364,-0.1638 -0.0644,-0.24458 -0.003,-0.009 -0.01,-0.0168 -0.0129,-0.0258 -0.0258,-0.0716 -0.057,-0.15136 -0.0901,-0.21884 -0.0171,-0.0341 -0.0325,-0.07 -0.0515,-0.10298 -0.0225,-0.04 -0.0522,-0.0776 -0.0772,-0.11586 -0.0388,-0.0581 -0.0844,-0.11369 -0.12873,-0.16734 -0.059,-0.0719 -0.12488,-0.14294 -0.1931,-0.20597 -0.005,-0.004 -0.008,-0.009 -0.0129,-0.0129 -0.057,-0.0517 -0.11744,-0.0966 -0.18022,-0.14161 -0.0423,-0.0301 -0.0842,-0.0632 -0.12873,-0.0901 -0.003,-0.002 -0.01,0.002 -0.0129,0 -0.0956,-0.0571 -0.19054,-0.11318 -0.29608,-0.15447 0.12421,0.0399 0.2457,0.0841 0.36044,0.1416 0.22949,0.11503 0.43667,0.27423 0.6179,0.45055 0.0906,0.0882 0.16863,0.18202 0.24459,0.28321 0.076,0.10118 0.1464,0.20916 0.20596,0.32182 0.0577,0.10918 0.11375,0.21615 0.15448,0.3347 0.004,0.0127 0.009,0.0258 0.0128,0.0386 0.0373,0.11456 0.0572,0.23868 0.0772,0.36045 0.0216,0.13101 0.0386,0.26117 0.0386,0.39906 l 0,0.82386 0,21.42054 0,0.82387 c 0,1.36926 -1.10234,2.4716 -2.4716,2.4716 z"
         id="path3615"
         style="opacity:0.15;fill:url(#radialGradient18131);fill-opacity:1;fill-rule:nonzero;stroke:none" />
      <path
         d="m 257.38906,386.15843 0,0.41193 29.65921,0 0,-0.41193 -29.65921,0 z"
         id="path3992"
         style="opacity:0.3;fill:#000000;fill-opacity:1;fill-rule:nonzero;stroke:none" />
      <path
         d="m 272.90093,387.03378 7.01574,20.90562 0.41193,0 -7.01574,-20.90562 z"
         id="path2669"
         style="opacity:0.5;fill:url(#linearGradient18133);fill-opacity:1;fill-rule:evenodd;stroke:none;display:inline" />
      <path
         d="m 272.90093,387.03378 7.01574,20.90562 5.8958,0 c 0.22195,0 0.36044,-0.13848 0.36044,-0.36044 l 0,-20.18473 c 0,-0.22195 -0.13849,-0.36045 -0.36044,-0.36045 z"
         id="path3664"
         style="fill:url(#linearGradient18135);fill-opacity:1;fill-rule:evenodd;stroke:none;display:inline" />
      <path
         d="m 271.96121,384.51069 0.4248,1.21006 14.66226,0 c 0.24071,0.002 0.43525,0.19697 0.43768,0.43768 l 0,22.65633 c -0.002,0.24071 -0.19697,0.43525 -0.43768,0.43768 l -5.87005,0 0.5664,1.59624 5.93442,0 c 0.52691,-0.0674 0.95351,-0.37765 1.19718,-0.81099 -0.0322,0.0364 -0.0546,0.0813 -0.0901,0.11586 -0.18123,0.17633 -0.38842,0.33553 -0.6179,0.45055 -0.11474,0.0575 -0.23623,0.10172 -0.36044,0.1416 0.10554,-0.0413 0.20049,-0.0973 0.29608,-0.15448 0.003,-0.002 0.01,0.002 0.0128,0 0.0446,-0.0269 0.0865,-0.06 0.12873,-0.0901 0.0628,-0.045 0.12321,-0.0899 0.18022,-0.1416 0.005,-0.004 0.008,-0.009 0.0128,-0.0129 0.0682,-0.063 0.13411,-0.13411 0.19309,-0.20597 0.0443,-0.0537 0.09,-0.10927 0.12873,-0.16734 0.025,-0.0383 0.0548,-0.0758 0.0772,-0.11586 0.019,-0.033 0.0344,-0.0689 0.0515,-0.10298 0.0331,-0.0675 0.0643,-0.14727 0.0901,-0.21884 0.003,-0.009 0.01,-0.0167 0.0129,-0.0257 0.028,-0.0808 0.0462,-0.15936 0.0644,-0.24459 0.01,-0.0455 0.0183,-0.0948 0.0258,-0.1416 l 0,-22.8623 c -0.14984,-0.99362 -0.99542,-1.75072 -2.03392,-1.75072 l -0.82387,0 -14.26319,0 z"
         id="path4128"
         style="opacity:0.25;fill:url(#linearGradient18137);fill-opacity:1;fill-rule:evenodd;stroke:none;display:inline" />
      <g
         transform="matrix(0.41193338,0,0,0.61790007,252.44586,365.97369)"
         id="g3895">
        <g
           transform="translate(0,2)"
           id="g3302">
          <rect
             width="6"
             height="2"
             x="56"
             y="70"
             id="rect3296"
             style="fill:#b3b3b3;fill-opacity:1;fill-rule:nonzero;stroke:none" />
          <rect
             width="1"
             height="2"
             x="56"
             y="70"
             id="rect3298"
             style="opacity:0.4;fill:#ffffff;fill-opacity:1;fill-rule:nonzero;stroke:none" />
          <rect
             width="1"
             height="2"
             x="61"
             y="70"
             id="rect3300"
             style="opacity:0.4;fill:#000000;fill-opacity:1;fill-rule:nonzero;stroke:none" />
        </g>
        <g
           transform="translate(6,2)"
           id="g3307">
          <rect
             width="6"
             height="2"
             x="56"
             y="70"
             id="rect3309"
             style="fill:#b3b3b3;fill-opacity:1;fill-rule:nonzero;stroke:none" />
          <rect
             width="1"
             height="2"
             x="56"
             y="70"
             id="rect3311-9"
             style="opacity:0.4;fill:#ffffff;fill-opacity:1;fill-rule:nonzero;stroke:none" />
          <rect
             width="1"
             height="2"
             x="61"
             y="70"
             id="rect3313"
             style="opacity:0.4;fill:#000000;fill-opacity:1;fill-rule:nonzero;stroke:none" />
        </g>
        <g
           transform="translate(12,2)"
           id="g3315">
          <rect
             width="6"
             height="2"
             x="56"
             y="70"
             id="rect3317"
             style="fill:#b3b3b3;fill-opacity:1;fill-rule:nonzero;stroke:none" />
          <rect
             width="1"
             height="2"
             x="56"
             y="70"
             id="rect3319"
             style="opacity:0.4;fill:#ffffff;fill-opacity:1;fill-rule:nonzero;stroke:none" />
          <rect
             width="1"
             height="2"
             x="61"
             y="70"
             id="rect3321"
             style="opacity:0.4;fill:#000000;fill-opacity:1;fill-rule:nonzero;stroke:none" />
        </g>
        <g
           transform="translate(18,2)"
           id="g3323">
          <rect
             width="6"
             height="2"
             x="56"
             y="70"
             id="rect3325"
             style="fill:#b3b3b3;fill-opacity:1;fill-rule:nonzero;stroke:none" />
          <rect
             width="1"
             height="2"
             x="56"
             y="70"
             id="rect3327"
             style="opacity:0.4;fill:#ffffff;fill-opacity:1;fill-rule:nonzero;stroke:none" />
          <rect
             width="1"
             height="2"
             x="61"
             y="70"
             id="rect3329"
             style="opacity:0.4;fill:#000000;fill-opacity:1;fill-rule:nonzero;stroke:none" />
        </g>
      </g>
      <g
         transform="matrix(0.55193468,0,0,0.49626643,608.38317,50.770826)"
         id="flowRoot3714-6-5-9-0-8-45-8"
         style="font-size:40px;font-style:normal;font-weight:normal;fill:#afab4c;fill-opacity:1;stroke:none;font-family:Bitstream Vera Sans">
        <path
           d="m -606.05859,689.40512 c -0.84637,2e-5 -1.26955,0.94403 -1.26953,2.83203 l 0,13.39844 c 1.23696,0 2.47394,-0.67708 3.71093,-2.03125 1.10675,-1.21093 1.66014,-3.26822 1.66016,-6.17187 -2e-5,-2.70832 -0.55992,-4.79165 -1.67969,-6.25 -0.91147,-1.18488 -1.71877,-1.77733 -2.42187,-1.77735 m 0,-3.0664 c 1.82289,2e-5 3.56117,0.85939 5.21484,2.57812 1.78383,1.83596 2.67576,4.6745 2.67578,8.51563 -2e-5,3.52865 -0.89195,6.34115 -2.67578,8.4375 -1.67971,1.97916 -3.84116,2.96875 -6.48437,2.96875 l 0,7.85156 -3.57422,0 0,-7.83203 c -2.59116,0 -4.75912,-0.9961 -6.50391,-2.98828 -1.77084,-2.03125 -2.65625,-4.83724 -2.65625,-8.41797 0,-3.72395 0.88541,-6.53644 2.65625,-8.4375 1.32812,-1.41925 3.07291,-2.31118 5.23438,-2.67578 l 0,3.18359 c -0.85939,0.2995 -1.66668,0.95705 -2.42188,1.97266 -1.1198,1.49741 -1.67969,3.48308 -1.67969,5.95703 0,2.63021 0.55989,4.69401 1.67969,6.1914 1.0026,1.34115 2.23306,2.01173 3.69141,2.01172 l 0,-13.41797 c -2e-5,-3.93227 1.61457,-5.89841 4.84375,-5.89843"
           id="path3414"
           style="fill:#afab4c" />
      </g>
      <path
         d="m 280.92385,397.00603 a 8.732515,8.732515 0 0 1 -17.46503,0 8.732515,8.732515 0 1 1 17.46503,0 z"
         id="path4228-9-9-7-8-3-9-36"
         style="fill:none;stroke:#afab4c;stroke-width:1.75744951;stroke-miterlimit:4;stroke-opacity:1;stroke-dasharray:none" />
      <g
         transform="matrix(0.36690211,0,0,0.44655725,231.99238,366.61285)"
         id="layer4"
         style="display:inline">
        <path
           d="m 48,20 c -13.248,0 -24,8.959999 -24,20 0,11.040002 10.752,20 24,20 13.248,10e-7 24,-8.959999 24,-20 C 72,28.96 61.248,20 48,20 z m 5.71875,2.265625 c 3.916416,0.874499 7.039235,2.350404 9.90625,4.739583 l -7.84375,6.510417 C 54.440705,32.398504 52.759334,31.569172 50.875,31.145833 l 2.84375,-8.880208 z M 48,32.5 c 4.968,-10e-7 9,3.360001 9,7.5 -10e-7,4.14 -4.032001,7.5 -9,7.5 -4.967999,10e-7 -9,-3.360001 -9,-7.5 10e-7,-4.139999 4.032001,-7.5 9,-7.5 z m 0,2.5 c -3.312,-10e-7 -6,2.24 -6,5 0,2.760001 2.688,4.999999 6,5 3.312,10e-7 5.999999,-2.240001 6,-5 0,-2.759999 -2.688001,-5 -6,-5 z m 0,1.666667 c 2.208,0 4,1.493333 4,3.333333 0,1.84 -1.792,3.333333 -4,3.333333 C 45.792,43.33333 44,41.84 44,40 c 10e-7,-1.839999 1.792,-3.333333 4,-3.333333 z m -7.78125,9.817708 0.03125,0 c 1.351617,1.121706 3.037427,1.952208 4.9375,2.369792 l -2.84375,8.880208 c -3.916415,-0.8745 -7.039235,-2.350406 -9.90625,-4.739583 l 7.78125,-6.510417 z"
           id="path3340"
           style="fill:url(#linearGradient18139);fill-opacity:1;fill-rule:nonzero;stroke:none" />
        <path
           d="m 48,20 c -13.248,0 -24,8.959999 -24,20 0,0.167119 -0.0049,0.333858 0,0.5 C 24.318728,29.69069 34.952543,21 48,21 61.047457,21 71.681272,29.690691 72,40.5 72.0049,40.333858 72,40.167119 72,40 72,28.96 61.248,20 48,20 z M 63,27.53125 55.78125,33.5 c -1.27094,-1.059117 -2.858841,-1.808973 -4.625,-2.25 L 50.875,32.15625 c 1.884334,0.423339 3.565705,1.226629 4.90625,2.34375 L 63.625,28 C 63.422335,27.831113 63.205411,27.69112 63,27.53125 z M 48,35 c -3.312,-10e-7 -6,2.24 -6,5 0,0.1725 0.01075,0.331982 0.03125,0.5 C 42.338691,37.979736 44.895,35.999999 48,36 c 3.104999,0 5.661308,1.979737 5.96875,4.5 C 53.989246,40.331982 54,40.1725 54,40 54,37.240001 51.311999,35 48,35 z m -8.96875,5.5 C 39.018523,40.663083 39,40.834251 39,41 c 0,4.139999 4.032001,7.500001 9,7.5 4.967999,0 8.999999,-3.36 9,-7.5 0,-0.165749 -0.01852,-0.336917 -0.03125,-0.5 -0.305161,3.910326 -4.19965,7 -8.96875,7 -4.7691,10e-7 -8.66359,-3.089675 -8.96875,-7 z m 5.03125,0 C 44.031334,40.667559 44,40.8252 44,41 c 0,1.84 1.792,3.343748 4,3.34375 2.208,0 4,-1.50375 4,-3.34375 0,-0.1748 -0.03133,-0.33244 -0.0625,-0.5 -0.296896,1.596225 -1.93926,2.84375 -3.9375,2.84375 -1.99824,-2e-6 -3.640604,-1.247525 -3.9375,-2.84375 z m 0.84375,9.25 -2.5625,8 C 38.70418,56.937317 35.762956,55.5705 33.0625,53.46875 L 32.4375,54 c 2.867015,2.389177 5.989835,3.8755 9.90625,4.75 L 45.1875,49.84375 C 45.08884,49.82207 45.003736,49.77389 44.90625,49.75 z"
           id="path3383"
           style="opacity:0.4;fill:#000000;fill-opacity:1;fill-rule:nonzero;stroke:none" />
        <path
           d="m -32,20 c -13.248,0 -24,8.959999 -24,20 0,11.040002 10.752,20 24,20 13.248,10e-7 24,-8.959999 24,-20 0,-11.04 -10.752,-20 -24,-20 z m 5.71875,2.265625 c 3.916416,0.874499 7.039235,2.350404 9.90625,4.739583 l -7.84375,6.510417 c -1.340545,-1.117121 -3.021916,-1.946453 -4.90625,-2.369792 l 2.84375,-8.880208 z M -32,32.5 c 4.968,-10e-7 9,3.360001 9,7.5 -1e-6,4.14 -4.032001,7.5 -9,7.5 -4.967999,10e-7 -9,-3.360001 -9,-7.5 10e-7,-4.139999 4.032001,-7.5 9,-7.5 z m 0,2.5 c -3.312,-10e-7 -6,2.24 -6,5 0,2.760001 2.688,4.999999 6,5 3.312,10e-7 5.999999,-2.240001 6,-5 0,-2.759999 -2.688001,-5 -6,-5 z m 0,1.666667 c 2.208,0 4,1.493333 4,3.333333 0,1.84 -1.792,3.333333 -4,3.333333 C -34.208,43.33333 -36,41.84 -36,40 c 10e-7,-1.839999 1.792,-3.333333 4,-3.333333 z m -7.78125,9.817708 0.03125,0 c 1.351617,1.121706 3.037427,1.952208 4.9375,2.369792 l -2.84375,8.880208 c -3.916415,-0.8745 -7.039235,-2.350406 -9.90625,-4.739583 l 7.78125,-6.510417 z"
           transform="translate(80,0)"
           clip-path="url(#clipPath3403)"
           id="path3401"
           style="opacity:0.8;fill:none;stroke:#ffffff;stroke-width:2;stroke-linecap:square;stroke-linejoin:miter;stroke-miterlimit:4;stroke-opacity:1;stroke-dasharray:none;stroke-dashoffset:0;filter:url(#filter3407)" />
      </g>
      <path
         d="m 245.60875,390.35987 c -1.76548,5.84823 -5.83286,12.19336 7.98149,14.67825 l 0.54232,3.91429 7.44711,-7.56996 -9.19897,-5.78133 0.7567,4.17932 c -6.90452,1.38543 -6.69225,-4.24963 -7.52866,-9.42057 z"
         id="path9338"
         style="opacity:0.58775509;fill:#000000;fill-opacity:1;stroke:#000000;stroke-width:0.86712474px;stroke-linecap:butt;stroke-linejoin:miter;stroke-opacity:1;filter:url(#filter17946)" />
      <path
         d="m 244.77506,388.60163 c -1.76548,5.84823 -5.83286,12.19336 7.98149,14.67825 l 0.54232,3.91429 7.44711,-7.56996 -9.19897,-5.78133 0.7567,4.17932 c -6.90452,1.38543 -6.69225,-4.24963 -7.52866,-9.42057 z"
         id="path9338-3"
         style="fill:#c5c1c5;fill-opacity:1;stroke:#000000;stroke-width:0.86712474px;stroke-linecap:butt;stroke-linejoin:miter;stroke-opacity:1;display:inline" />
    </g>
  </g>
</svg>
